G04 #@! TF.GenerationSoftware,KiCad,Pcbnew,5.1.5-1.fc31*
G04 #@! TF.CreationDate,2020-04-10T18:01:58-07:00*
G04 #@! TF.ProjectId,AdapterBoard,41646170-7465-4724-926f-6172642e6b69,rev?*
G04 #@! TF.SameCoordinates,Original*
G04 #@! TF.FileFunction,Copper,L1,Top*
G04 #@! TF.FilePolarity,Positive*
%FSLAX46Y46*%
G04 Gerber Fmt 4.6, Leading zero omitted, Abs format (unit mm)*
G04 Created by KiCad (PCBNEW 5.1.5-1.fc31) date 2020-04-10 18:01:58*
%MOMM*%
%LPD*%
G04 APERTURE LIST*
%ADD10O,1.700000X1.700000*%
%ADD11R,1.700000X1.700000*%
%ADD12C,0.800000*%
%ADD13C,0.750000*%
%ADD14C,0.254000*%
G04 APERTURE END LIST*
D10*
X157500000Y-78620000D03*
X157500000Y-76080000D03*
X157500000Y-73540000D03*
X157500000Y-71000000D03*
X157500000Y-68460000D03*
X157500000Y-65920000D03*
X157500000Y-63380000D03*
D11*
X157500000Y-60840000D03*
D10*
X140716000Y-49530000D03*
X140716000Y-52070000D03*
X143256000Y-49530000D03*
X143256000Y-52070000D03*
X145796000Y-49530000D03*
X145796000Y-52070000D03*
X148336000Y-49530000D03*
X148336000Y-52070000D03*
X150876000Y-49530000D03*
D11*
X150876000Y-52070000D03*
D10*
X135000000Y-78620000D03*
X135000000Y-76080000D03*
X135000000Y-73540000D03*
X135000000Y-71000000D03*
X135000000Y-68460000D03*
X135000000Y-65920000D03*
X135000000Y-63380000D03*
D11*
X135000000Y-60840000D03*
D12*
X153416000Y-54864000D03*
X149860000Y-58420000D03*
D13*
X153416000Y-54864000D02*
X149860000Y-58420000D01*
D14*
G36*
X140012589Y-48214010D02*
G01*
X139769368Y-48376525D01*
X139562525Y-48583368D01*
X139400010Y-48826589D01*
X139288068Y-49096842D01*
X139231000Y-49383740D01*
X139231000Y-49676260D01*
X139288068Y-49963158D01*
X139400010Y-50233411D01*
X139562525Y-50476632D01*
X139769368Y-50683475D01*
X139943760Y-50800000D01*
X139769368Y-50916525D01*
X139562525Y-51123368D01*
X139400010Y-51366589D01*
X139288068Y-51636842D01*
X139231000Y-51923740D01*
X139231000Y-52216260D01*
X139288068Y-52503158D01*
X139400010Y-52773411D01*
X139562525Y-53016632D01*
X139769368Y-53223475D01*
X140012589Y-53385990D01*
X140282842Y-53497932D01*
X140569740Y-53555000D01*
X140862260Y-53555000D01*
X141149158Y-53497932D01*
X141419411Y-53385990D01*
X141662632Y-53223475D01*
X141869475Y-53016632D01*
X141986000Y-52842240D01*
X142102525Y-53016632D01*
X142309368Y-53223475D01*
X142552589Y-53385990D01*
X142822842Y-53497932D01*
X143109740Y-53555000D01*
X143402260Y-53555000D01*
X143689158Y-53497932D01*
X143959411Y-53385990D01*
X144202632Y-53223475D01*
X144409475Y-53016632D01*
X144526000Y-52842240D01*
X144642525Y-53016632D01*
X144849368Y-53223475D01*
X145092589Y-53385990D01*
X145362842Y-53497932D01*
X145649740Y-53555000D01*
X145942260Y-53555000D01*
X146229158Y-53497932D01*
X146499411Y-53385990D01*
X146742632Y-53223475D01*
X146949475Y-53016632D01*
X147066000Y-52842240D01*
X147182525Y-53016632D01*
X147389368Y-53223475D01*
X147632589Y-53385990D01*
X147902842Y-53497932D01*
X148189740Y-53555000D01*
X148482260Y-53555000D01*
X148769158Y-53497932D01*
X149039411Y-53385990D01*
X149282632Y-53223475D01*
X149414487Y-53091620D01*
X149436498Y-53164180D01*
X149495463Y-53274494D01*
X149574815Y-53371185D01*
X149671506Y-53450537D01*
X149781820Y-53509502D01*
X149901518Y-53545812D01*
X150026000Y-53558072D01*
X150590250Y-53555000D01*
X150749000Y-53396250D01*
X150749000Y-52197000D01*
X151003000Y-52197000D01*
X151003000Y-53396250D01*
X151161750Y-53555000D01*
X151726000Y-53558072D01*
X151850482Y-53545812D01*
X151970180Y-53509502D01*
X152080494Y-53450537D01*
X152177185Y-53371185D01*
X152256537Y-53274494D01*
X152315502Y-53164180D01*
X152351812Y-53044482D01*
X152364072Y-52920000D01*
X152361000Y-52355750D01*
X152202250Y-52197000D01*
X151003000Y-52197000D01*
X150749000Y-52197000D01*
X150729000Y-52197000D01*
X150729000Y-51943000D01*
X150749000Y-51943000D01*
X150749000Y-51923000D01*
X151003000Y-51923000D01*
X151003000Y-51943000D01*
X152202250Y-51943000D01*
X152361000Y-51784250D01*
X152364072Y-51220000D01*
X152351812Y-51095518D01*
X152315502Y-50975820D01*
X152256537Y-50865506D01*
X152177185Y-50768815D01*
X152080494Y-50689463D01*
X151970180Y-50630498D01*
X151897620Y-50608487D01*
X152029475Y-50476632D01*
X152191990Y-50233411D01*
X152303932Y-49963158D01*
X152361000Y-49676260D01*
X152361000Y-49383740D01*
X152303932Y-49096842D01*
X152191990Y-48826589D01*
X152029475Y-48583368D01*
X151822632Y-48376525D01*
X151579411Y-48214010D01*
X151449019Y-48160000D01*
X158840000Y-48160000D01*
X158840001Y-59586112D01*
X158801185Y-59538815D01*
X158704494Y-59459463D01*
X158594180Y-59400498D01*
X158474482Y-59364188D01*
X158350000Y-59351928D01*
X156650000Y-59351928D01*
X156525518Y-59364188D01*
X156405820Y-59400498D01*
X156295506Y-59459463D01*
X156198815Y-59538815D01*
X156119463Y-59635506D01*
X156060498Y-59745820D01*
X156024188Y-59865518D01*
X156011928Y-59990000D01*
X156011928Y-61690000D01*
X156024188Y-61814482D01*
X156060498Y-61934180D01*
X156119463Y-62044494D01*
X156198815Y-62141185D01*
X156295506Y-62220537D01*
X156405820Y-62279502D01*
X156478380Y-62301513D01*
X156346525Y-62433368D01*
X156184010Y-62676589D01*
X156072068Y-62946842D01*
X156015000Y-63233740D01*
X156015000Y-63526260D01*
X156072068Y-63813158D01*
X156184010Y-64083411D01*
X156346525Y-64326632D01*
X156553368Y-64533475D01*
X156727760Y-64650000D01*
X156553368Y-64766525D01*
X156346525Y-64973368D01*
X156184010Y-65216589D01*
X156072068Y-65486842D01*
X156015000Y-65773740D01*
X156015000Y-66066260D01*
X156072068Y-66353158D01*
X156184010Y-66623411D01*
X156346525Y-66866632D01*
X156553368Y-67073475D01*
X156727760Y-67190000D01*
X156553368Y-67306525D01*
X156346525Y-67513368D01*
X156184010Y-67756589D01*
X156072068Y-68026842D01*
X156015000Y-68313740D01*
X156015000Y-68606260D01*
X156072068Y-68893158D01*
X156184010Y-69163411D01*
X156346525Y-69406632D01*
X156553368Y-69613475D01*
X156727760Y-69730000D01*
X156553368Y-69846525D01*
X156346525Y-70053368D01*
X156184010Y-70296589D01*
X156072068Y-70566842D01*
X156015000Y-70853740D01*
X156015000Y-71146260D01*
X156072068Y-71433158D01*
X156184010Y-71703411D01*
X156346525Y-71946632D01*
X156553368Y-72153475D01*
X156727760Y-72270000D01*
X156553368Y-72386525D01*
X156346525Y-72593368D01*
X156184010Y-72836589D01*
X156072068Y-73106842D01*
X156015000Y-73393740D01*
X156015000Y-73686260D01*
X156072068Y-73973158D01*
X156184010Y-74243411D01*
X156346525Y-74486632D01*
X156553368Y-74693475D01*
X156735534Y-74815195D01*
X156618645Y-74884822D01*
X156402412Y-75079731D01*
X156228359Y-75313080D01*
X156103175Y-75575901D01*
X156058524Y-75723110D01*
X156179845Y-75953000D01*
X157373000Y-75953000D01*
X157373000Y-75933000D01*
X157627000Y-75933000D01*
X157627000Y-75953000D01*
X157647000Y-75953000D01*
X157647000Y-76207000D01*
X157627000Y-76207000D01*
X157627000Y-76227000D01*
X157373000Y-76227000D01*
X157373000Y-76207000D01*
X156179845Y-76207000D01*
X156058524Y-76436890D01*
X156103175Y-76584099D01*
X156228359Y-76846920D01*
X156402412Y-77080269D01*
X156618645Y-77275178D01*
X156735534Y-77344805D01*
X156553368Y-77466525D01*
X156346525Y-77673368D01*
X156184010Y-77916589D01*
X156072068Y-78186842D01*
X156015000Y-78473740D01*
X156015000Y-78766260D01*
X156072068Y-79053158D01*
X156184010Y-79323411D01*
X156346525Y-79566632D01*
X156553368Y-79773475D01*
X156652930Y-79840000D01*
X135847070Y-79840000D01*
X135946632Y-79773475D01*
X136153475Y-79566632D01*
X136315990Y-79323411D01*
X136427932Y-79053158D01*
X136485000Y-78766260D01*
X136485000Y-78473740D01*
X136427932Y-78186842D01*
X136315990Y-77916589D01*
X136153475Y-77673368D01*
X135946632Y-77466525D01*
X135772240Y-77350000D01*
X135946632Y-77233475D01*
X136153475Y-77026632D01*
X136315990Y-76783411D01*
X136427932Y-76513158D01*
X136485000Y-76226260D01*
X136485000Y-75933740D01*
X136427932Y-75646842D01*
X136315990Y-75376589D01*
X136153475Y-75133368D01*
X135946632Y-74926525D01*
X135772240Y-74810000D01*
X135946632Y-74693475D01*
X136153475Y-74486632D01*
X136315990Y-74243411D01*
X136427932Y-73973158D01*
X136485000Y-73686260D01*
X136485000Y-73393740D01*
X136427932Y-73106842D01*
X136315990Y-72836589D01*
X136153475Y-72593368D01*
X135946632Y-72386525D01*
X135772240Y-72270000D01*
X135946632Y-72153475D01*
X136153475Y-71946632D01*
X136315990Y-71703411D01*
X136427932Y-71433158D01*
X136485000Y-71146260D01*
X136485000Y-70853740D01*
X136427932Y-70566842D01*
X136315990Y-70296589D01*
X136153475Y-70053368D01*
X135946632Y-69846525D01*
X135772240Y-69730000D01*
X135946632Y-69613475D01*
X136153475Y-69406632D01*
X136315990Y-69163411D01*
X136427932Y-68893158D01*
X136485000Y-68606260D01*
X136485000Y-68313740D01*
X136427932Y-68026842D01*
X136315990Y-67756589D01*
X136153475Y-67513368D01*
X135946632Y-67306525D01*
X135772240Y-67190000D01*
X135946632Y-67073475D01*
X136153475Y-66866632D01*
X136315990Y-66623411D01*
X136427932Y-66353158D01*
X136485000Y-66066260D01*
X136485000Y-65773740D01*
X136427932Y-65486842D01*
X136315990Y-65216589D01*
X136153475Y-64973368D01*
X135946632Y-64766525D01*
X135772240Y-64650000D01*
X135946632Y-64533475D01*
X136153475Y-64326632D01*
X136315990Y-64083411D01*
X136427932Y-63813158D01*
X136485000Y-63526260D01*
X136485000Y-63233740D01*
X136427932Y-62946842D01*
X136315990Y-62676589D01*
X136153475Y-62433368D01*
X136021620Y-62301513D01*
X136094180Y-62279502D01*
X136204494Y-62220537D01*
X136301185Y-62141185D01*
X136380537Y-62044494D01*
X136439502Y-61934180D01*
X136475812Y-61814482D01*
X136488072Y-61690000D01*
X136488072Y-59990000D01*
X136475812Y-59865518D01*
X136439502Y-59745820D01*
X136380537Y-59635506D01*
X136301185Y-59538815D01*
X136204494Y-59459463D01*
X136094180Y-59400498D01*
X135974482Y-59364188D01*
X135850000Y-59351928D01*
X134150000Y-59351928D01*
X134025518Y-59364188D01*
X133905820Y-59400498D01*
X133795506Y-59459463D01*
X133731000Y-59512402D01*
X133731000Y-58318061D01*
X148825000Y-58318061D01*
X148825000Y-58521939D01*
X148864774Y-58721898D01*
X148942795Y-58910256D01*
X149056063Y-59079774D01*
X149200226Y-59223937D01*
X149369744Y-59337205D01*
X149558102Y-59415226D01*
X149758061Y-59455000D01*
X149961939Y-59455000D01*
X150161898Y-59415226D01*
X150350256Y-59337205D01*
X150519774Y-59223937D01*
X150663937Y-59079774D01*
X150735132Y-58973223D01*
X153969223Y-55739132D01*
X154075774Y-55667937D01*
X154219937Y-55523774D01*
X154333205Y-55354256D01*
X154411226Y-55165898D01*
X154451000Y-54965939D01*
X154451000Y-54762061D01*
X154411226Y-54562102D01*
X154333205Y-54373744D01*
X154219937Y-54204226D01*
X154075774Y-54060063D01*
X153906256Y-53946795D01*
X153717898Y-53868774D01*
X153517939Y-53829000D01*
X153314061Y-53829000D01*
X153114102Y-53868774D01*
X152925744Y-53946795D01*
X152756226Y-54060063D01*
X152612063Y-54204226D01*
X152540868Y-54310777D01*
X149306777Y-57544868D01*
X149200226Y-57616063D01*
X149056063Y-57760226D01*
X148942795Y-57929744D01*
X148864774Y-58118102D01*
X148825000Y-58318061D01*
X133731000Y-58318061D01*
X133731000Y-48160000D01*
X140142981Y-48160000D01*
X140012589Y-48214010D01*
G37*
X140012589Y-48214010D02*
X139769368Y-48376525D01*
X139562525Y-48583368D01*
X139400010Y-48826589D01*
X139288068Y-49096842D01*
X139231000Y-49383740D01*
X139231000Y-49676260D01*
X139288068Y-49963158D01*
X139400010Y-50233411D01*
X139562525Y-50476632D01*
X139769368Y-50683475D01*
X139943760Y-50800000D01*
X139769368Y-50916525D01*
X139562525Y-51123368D01*
X139400010Y-51366589D01*
X139288068Y-51636842D01*
X139231000Y-51923740D01*
X139231000Y-52216260D01*
X139288068Y-52503158D01*
X139400010Y-52773411D01*
X139562525Y-53016632D01*
X139769368Y-53223475D01*
X140012589Y-53385990D01*
X140282842Y-53497932D01*
X140569740Y-53555000D01*
X140862260Y-53555000D01*
X141149158Y-53497932D01*
X141419411Y-53385990D01*
X141662632Y-53223475D01*
X141869475Y-53016632D01*
X141986000Y-52842240D01*
X142102525Y-53016632D01*
X142309368Y-53223475D01*
X142552589Y-53385990D01*
X142822842Y-53497932D01*
X143109740Y-53555000D01*
X143402260Y-53555000D01*
X143689158Y-53497932D01*
X143959411Y-53385990D01*
X144202632Y-53223475D01*
X144409475Y-53016632D01*
X144526000Y-52842240D01*
X144642525Y-53016632D01*
X144849368Y-53223475D01*
X145092589Y-53385990D01*
X145362842Y-53497932D01*
X145649740Y-53555000D01*
X145942260Y-53555000D01*
X146229158Y-53497932D01*
X146499411Y-53385990D01*
X146742632Y-53223475D01*
X146949475Y-53016632D01*
X147066000Y-52842240D01*
X147182525Y-53016632D01*
X147389368Y-53223475D01*
X147632589Y-53385990D01*
X147902842Y-53497932D01*
X148189740Y-53555000D01*
X148482260Y-53555000D01*
X148769158Y-53497932D01*
X149039411Y-53385990D01*
X149282632Y-53223475D01*
X149414487Y-53091620D01*
X149436498Y-53164180D01*
X149495463Y-53274494D01*
X149574815Y-53371185D01*
X149671506Y-53450537D01*
X149781820Y-53509502D01*
X149901518Y-53545812D01*
X150026000Y-53558072D01*
X150590250Y-53555000D01*
X150749000Y-53396250D01*
X150749000Y-52197000D01*
X151003000Y-52197000D01*
X151003000Y-53396250D01*
X151161750Y-53555000D01*
X151726000Y-53558072D01*
X151850482Y-53545812D01*
X151970180Y-53509502D01*
X152080494Y-53450537D01*
X152177185Y-53371185D01*
X152256537Y-53274494D01*
X152315502Y-53164180D01*
X152351812Y-53044482D01*
X152364072Y-52920000D01*
X152361000Y-52355750D01*
X152202250Y-52197000D01*
X151003000Y-52197000D01*
X150749000Y-52197000D01*
X150729000Y-52197000D01*
X150729000Y-51943000D01*
X150749000Y-51943000D01*
X150749000Y-51923000D01*
X151003000Y-51923000D01*
X151003000Y-51943000D01*
X152202250Y-51943000D01*
X152361000Y-51784250D01*
X152364072Y-51220000D01*
X152351812Y-51095518D01*
X152315502Y-50975820D01*
X152256537Y-50865506D01*
X152177185Y-50768815D01*
X152080494Y-50689463D01*
X151970180Y-50630498D01*
X151897620Y-50608487D01*
X152029475Y-50476632D01*
X152191990Y-50233411D01*
X152303932Y-49963158D01*
X152361000Y-49676260D01*
X152361000Y-49383740D01*
X152303932Y-49096842D01*
X152191990Y-48826589D01*
X152029475Y-48583368D01*
X151822632Y-48376525D01*
X151579411Y-48214010D01*
X151449019Y-48160000D01*
X158840000Y-48160000D01*
X158840001Y-59586112D01*
X158801185Y-59538815D01*
X158704494Y-59459463D01*
X158594180Y-59400498D01*
X158474482Y-59364188D01*
X158350000Y-59351928D01*
X156650000Y-59351928D01*
X156525518Y-59364188D01*
X156405820Y-59400498D01*
X156295506Y-59459463D01*
X156198815Y-59538815D01*
X156119463Y-59635506D01*
X156060498Y-59745820D01*
X156024188Y-59865518D01*
X156011928Y-59990000D01*
X156011928Y-61690000D01*
X156024188Y-61814482D01*
X156060498Y-61934180D01*
X156119463Y-62044494D01*
X156198815Y-62141185D01*
X156295506Y-62220537D01*
X156405820Y-62279502D01*
X156478380Y-62301513D01*
X156346525Y-62433368D01*
X156184010Y-62676589D01*
X156072068Y-62946842D01*
X156015000Y-63233740D01*
X156015000Y-63526260D01*
X156072068Y-63813158D01*
X156184010Y-64083411D01*
X156346525Y-64326632D01*
X156553368Y-64533475D01*
X156727760Y-64650000D01*
X156553368Y-64766525D01*
X156346525Y-64973368D01*
X156184010Y-65216589D01*
X156072068Y-65486842D01*
X156015000Y-65773740D01*
X156015000Y-66066260D01*
X156072068Y-66353158D01*
X156184010Y-66623411D01*
X156346525Y-66866632D01*
X156553368Y-67073475D01*
X156727760Y-67190000D01*
X156553368Y-67306525D01*
X156346525Y-67513368D01*
X156184010Y-67756589D01*
X156072068Y-68026842D01*
X156015000Y-68313740D01*
X156015000Y-68606260D01*
X156072068Y-68893158D01*
X156184010Y-69163411D01*
X156346525Y-69406632D01*
X156553368Y-69613475D01*
X156727760Y-69730000D01*
X156553368Y-69846525D01*
X156346525Y-70053368D01*
X156184010Y-70296589D01*
X156072068Y-70566842D01*
X156015000Y-70853740D01*
X156015000Y-71146260D01*
X156072068Y-71433158D01*
X156184010Y-71703411D01*
X156346525Y-71946632D01*
X156553368Y-72153475D01*
X156727760Y-72270000D01*
X156553368Y-72386525D01*
X156346525Y-72593368D01*
X156184010Y-72836589D01*
X156072068Y-73106842D01*
X156015000Y-73393740D01*
X156015000Y-73686260D01*
X156072068Y-73973158D01*
X156184010Y-74243411D01*
X156346525Y-74486632D01*
X156553368Y-74693475D01*
X156735534Y-74815195D01*
X156618645Y-74884822D01*
X156402412Y-75079731D01*
X156228359Y-75313080D01*
X156103175Y-75575901D01*
X156058524Y-75723110D01*
X156179845Y-75953000D01*
X157373000Y-75953000D01*
X157373000Y-75933000D01*
X157627000Y-75933000D01*
X157627000Y-75953000D01*
X157647000Y-75953000D01*
X157647000Y-76207000D01*
X157627000Y-76207000D01*
X157627000Y-76227000D01*
X157373000Y-76227000D01*
X157373000Y-76207000D01*
X156179845Y-76207000D01*
X156058524Y-76436890D01*
X156103175Y-76584099D01*
X156228359Y-76846920D01*
X156402412Y-77080269D01*
X156618645Y-77275178D01*
X156735534Y-77344805D01*
X156553368Y-77466525D01*
X156346525Y-77673368D01*
X156184010Y-77916589D01*
X156072068Y-78186842D01*
X156015000Y-78473740D01*
X156015000Y-78766260D01*
X156072068Y-79053158D01*
X156184010Y-79323411D01*
X156346525Y-79566632D01*
X156553368Y-79773475D01*
X156652930Y-79840000D01*
X135847070Y-79840000D01*
X135946632Y-79773475D01*
X136153475Y-79566632D01*
X136315990Y-79323411D01*
X136427932Y-79053158D01*
X136485000Y-78766260D01*
X136485000Y-78473740D01*
X136427932Y-78186842D01*
X136315990Y-77916589D01*
X136153475Y-77673368D01*
X135946632Y-77466525D01*
X135772240Y-77350000D01*
X135946632Y-77233475D01*
X136153475Y-77026632D01*
X136315990Y-76783411D01*
X136427932Y-76513158D01*
X136485000Y-76226260D01*
X136485000Y-75933740D01*
X136427932Y-75646842D01*
X136315990Y-75376589D01*
X136153475Y-75133368D01*
X135946632Y-74926525D01*
X135772240Y-74810000D01*
X135946632Y-74693475D01*
X136153475Y-74486632D01*
X136315990Y-74243411D01*
X136427932Y-73973158D01*
X136485000Y-73686260D01*
X136485000Y-73393740D01*
X136427932Y-73106842D01*
X136315990Y-72836589D01*
X136153475Y-72593368D01*
X135946632Y-72386525D01*
X135772240Y-72270000D01*
X135946632Y-72153475D01*
X136153475Y-71946632D01*
X136315990Y-71703411D01*
X136427932Y-71433158D01*
X136485000Y-71146260D01*
X136485000Y-70853740D01*
X136427932Y-70566842D01*
X136315990Y-70296589D01*
X136153475Y-70053368D01*
X135946632Y-69846525D01*
X135772240Y-69730000D01*
X135946632Y-69613475D01*
X136153475Y-69406632D01*
X136315990Y-69163411D01*
X136427932Y-68893158D01*
X136485000Y-68606260D01*
X136485000Y-68313740D01*
X136427932Y-68026842D01*
X136315990Y-67756589D01*
X136153475Y-67513368D01*
X135946632Y-67306525D01*
X135772240Y-67190000D01*
X135946632Y-67073475D01*
X136153475Y-66866632D01*
X136315990Y-66623411D01*
X136427932Y-66353158D01*
X136485000Y-66066260D01*
X136485000Y-65773740D01*
X136427932Y-65486842D01*
X136315990Y-65216589D01*
X136153475Y-64973368D01*
X135946632Y-64766525D01*
X135772240Y-64650000D01*
X135946632Y-64533475D01*
X136153475Y-64326632D01*
X136315990Y-64083411D01*
X136427932Y-63813158D01*
X136485000Y-63526260D01*
X136485000Y-63233740D01*
X136427932Y-62946842D01*
X136315990Y-62676589D01*
X136153475Y-62433368D01*
X136021620Y-62301513D01*
X136094180Y-62279502D01*
X136204494Y-62220537D01*
X136301185Y-62141185D01*
X136380537Y-62044494D01*
X136439502Y-61934180D01*
X136475812Y-61814482D01*
X136488072Y-61690000D01*
X136488072Y-59990000D01*
X136475812Y-59865518D01*
X136439502Y-59745820D01*
X136380537Y-59635506D01*
X136301185Y-59538815D01*
X136204494Y-59459463D01*
X136094180Y-59400498D01*
X135974482Y-59364188D01*
X135850000Y-59351928D01*
X134150000Y-59351928D01*
X134025518Y-59364188D01*
X133905820Y-59400498D01*
X133795506Y-59459463D01*
X133731000Y-59512402D01*
X133731000Y-58318061D01*
X148825000Y-58318061D01*
X148825000Y-58521939D01*
X148864774Y-58721898D01*
X148942795Y-58910256D01*
X149056063Y-59079774D01*
X149200226Y-59223937D01*
X149369744Y-59337205D01*
X149558102Y-59415226D01*
X149758061Y-59455000D01*
X149961939Y-59455000D01*
X150161898Y-59415226D01*
X150350256Y-59337205D01*
X150519774Y-59223937D01*
X150663937Y-59079774D01*
X150735132Y-58973223D01*
X153969223Y-55739132D01*
X154075774Y-55667937D01*
X154219937Y-55523774D01*
X154333205Y-55354256D01*
X154411226Y-55165898D01*
X154451000Y-54965939D01*
X154451000Y-54762061D01*
X154411226Y-54562102D01*
X154333205Y-54373744D01*
X154219937Y-54204226D01*
X154075774Y-54060063D01*
X153906256Y-53946795D01*
X153717898Y-53868774D01*
X153517939Y-53829000D01*
X153314061Y-53829000D01*
X153114102Y-53868774D01*
X152925744Y-53946795D01*
X152756226Y-54060063D01*
X152612063Y-54204226D01*
X152540868Y-54310777D01*
X149306777Y-57544868D01*
X149200226Y-57616063D01*
X149056063Y-57760226D01*
X148942795Y-57929744D01*
X148864774Y-58118102D01*
X148825000Y-58318061D01*
X133731000Y-58318061D01*
X133731000Y-48160000D01*
X140142981Y-48160000D01*
X140012589Y-48214010D01*
M02*
