M48
; DRILL file {KiCad 5.1.5-1.fc31} date Fri 10 Apr 2020 06:01:50 PM PDT
; FORMAT={-:-/ absolute / inch / decimal}
; #@! TF.CreationDate,2020-04-10T18:01:50-07:00
; #@! TF.GenerationSoftware,Kicad,Pcbnew,5.1.5-1.fc31
; #@! TF.FileFunction,Plated,1,2,PTH
FMAT,2
INCH
T1C0.0157
T2C0.0394
%
G90
G05
T1
X5.9Y-2.3
X6.04Y-2.16
T2
X6.2008Y-2.3953
X6.2008Y-2.4953
X6.2008Y-2.5953
X6.2008Y-2.6953
X6.2008Y-2.7953
X6.2008Y-2.8953
X6.2008Y-2.9953
X6.2008Y-3.0953
X5.315Y-2.3953
X5.315Y-2.4953
X5.315Y-2.5953
X5.315Y-2.6953
X5.315Y-2.7953
X5.315Y-2.8953
X5.315Y-2.9953
X5.315Y-3.0953
X5.54Y-1.95
X5.54Y-2.05
X5.64Y-1.95
X5.64Y-2.05
X5.74Y-1.95
X5.74Y-2.05
X5.84Y-1.95
X5.84Y-2.05
X5.94Y-1.95
X5.94Y-2.05
T0
M30
