G04 #@! TF.GenerationSoftware,KiCad,Pcbnew,5.1.5-1.fc31*
G04 #@! TF.CreationDate,2020-04-10T18:01:58-07:00*
G04 #@! TF.ProjectId,AdapterBoard,41646170-7465-4724-926f-6172642e6b69,rev?*
G04 #@! TF.SameCoordinates,Original*
G04 #@! TF.FileFunction,Legend,Top*
G04 #@! TF.FilePolarity,Positive*
%FSLAX46Y46*%
G04 Gerber Fmt 4.6, Leading zero omitted, Abs format (unit mm)*
G04 Created by KiCad (PCBNEW 5.1.5-1.fc31) date 2020-04-10 18:01:58*
%MOMM*%
%LPD*%
G04 APERTURE LIST*
%ADD10C,0.120000*%
%ADD11C,0.150000*%
G04 APERTURE END LIST*
D10*
X156170000Y-59510000D02*
X157500000Y-59510000D01*
X156170000Y-60840000D02*
X156170000Y-59510000D01*
X156170000Y-62110000D02*
X158830000Y-62110000D01*
X158830000Y-62110000D02*
X158830000Y-79950000D01*
X156170000Y-62110000D02*
X156170000Y-79950000D01*
X156170000Y-79950000D02*
X158830000Y-79950000D01*
X133670000Y-59510000D02*
X135000000Y-59510000D01*
X133670000Y-60840000D02*
X133670000Y-59510000D01*
X133670000Y-62110000D02*
X136330000Y-62110000D01*
X136330000Y-62110000D02*
X136330000Y-79950000D01*
X133670000Y-62110000D02*
X133670000Y-79950000D01*
X133670000Y-79950000D02*
X136330000Y-79950000D01*
D11*
X154166666Y-59262380D02*
X154166666Y-59976666D01*
X154119047Y-60119523D01*
X154023809Y-60214761D01*
X153880952Y-60262380D01*
X153785714Y-60262380D01*
X154547619Y-59262380D02*
X155166666Y-59262380D01*
X154833333Y-59643333D01*
X154976190Y-59643333D01*
X155071428Y-59690952D01*
X155119047Y-59738571D01*
X155166666Y-59833809D01*
X155166666Y-60071904D01*
X155119047Y-60167142D01*
X155071428Y-60214761D01*
X154976190Y-60262380D01*
X154690476Y-60262380D01*
X154595238Y-60214761D01*
X154547619Y-60167142D01*
X137666666Y-59262380D02*
X137666666Y-59976666D01*
X137619047Y-60119523D01*
X137523809Y-60214761D01*
X137380952Y-60262380D01*
X137285714Y-60262380D01*
X138666666Y-60262380D02*
X138095238Y-60262380D01*
X138380952Y-60262380D02*
X138380952Y-59262380D01*
X138285714Y-59405238D01*
X138190476Y-59500476D01*
X138095238Y-59548095D01*
M02*
