G04 #@! TF.GenerationSoftware,KiCad,Pcbnew,5.1.5-1.fc31*
G04 #@! TF.CreationDate,2020-04-10T18:01:58-07:00*
G04 #@! TF.ProjectId,AdapterBoard,41646170-7465-4724-926f-6172642e6b69,rev?*
G04 #@! TF.SameCoordinates,Original*
G04 #@! TF.FileFunction,Legend,Bot*
G04 #@! TF.FilePolarity,Positive*
%FSLAX46Y46*%
G04 Gerber Fmt 4.6, Leading zero omitted, Abs format (unit mm)*
G04 Created by KiCad (PCBNEW 5.1.5-1.fc31) date 2020-04-10 18:01:58*
%MOMM*%
%LPD*%
G04 APERTURE LIST*
%ADD10C,0.120000*%
%ADD11C,0.150000*%
G04 APERTURE END LIST*
D10*
X152146000Y-53340000D02*
X152146000Y-52070000D01*
X150876000Y-53340000D02*
X152146000Y-53340000D01*
X140336000Y-51027071D02*
X140336000Y-50572929D01*
X141096000Y-51027071D02*
X141096000Y-50572929D01*
X140336000Y-48487071D02*
X140336000Y-48090000D01*
X141096000Y-48487071D02*
X141096000Y-48090000D01*
X140336000Y-39430000D02*
X140336000Y-45430000D01*
X141096000Y-39430000D02*
X140336000Y-39430000D01*
X141096000Y-45430000D02*
X141096000Y-39430000D01*
X141986000Y-48090000D02*
X141986000Y-45430000D01*
X142876000Y-51027071D02*
X142876000Y-50572929D01*
X143636000Y-51027071D02*
X143636000Y-50572929D01*
X142876000Y-48487071D02*
X142876000Y-48090000D01*
X143636000Y-48487071D02*
X143636000Y-48090000D01*
X142876000Y-39430000D02*
X142876000Y-45430000D01*
X143636000Y-39430000D02*
X142876000Y-39430000D01*
X143636000Y-45430000D02*
X143636000Y-39430000D01*
X144526000Y-48090000D02*
X144526000Y-45430000D01*
X145416000Y-51027071D02*
X145416000Y-50572929D01*
X146176000Y-51027071D02*
X146176000Y-50572929D01*
X145416000Y-48487071D02*
X145416000Y-48090000D01*
X146176000Y-48487071D02*
X146176000Y-48090000D01*
X145416000Y-39430000D02*
X145416000Y-45430000D01*
X146176000Y-39430000D02*
X145416000Y-39430000D01*
X146176000Y-45430000D02*
X146176000Y-39430000D01*
X147066000Y-48090000D02*
X147066000Y-45430000D01*
X147956000Y-51027071D02*
X147956000Y-50572929D01*
X148716000Y-51027071D02*
X148716000Y-50572929D01*
X147956000Y-48487071D02*
X147956000Y-48090000D01*
X148716000Y-48487071D02*
X148716000Y-48090000D01*
X147956000Y-39430000D02*
X147956000Y-45430000D01*
X148716000Y-39430000D02*
X147956000Y-39430000D01*
X148716000Y-45430000D02*
X148716000Y-39430000D01*
X149606000Y-48090000D02*
X149606000Y-45430000D01*
X150496000Y-50960000D02*
X150496000Y-50572929D01*
X151256000Y-50960000D02*
X151256000Y-50572929D01*
X150496000Y-48487071D02*
X150496000Y-48090000D01*
X151256000Y-48487071D02*
X151256000Y-48090000D01*
X150596000Y-45430000D02*
X150596000Y-39430000D01*
X150716000Y-45430000D02*
X150716000Y-39430000D01*
X150836000Y-45430000D02*
X150836000Y-39430000D01*
X150956000Y-45430000D02*
X150956000Y-39430000D01*
X151076000Y-45430000D02*
X151076000Y-39430000D01*
X151196000Y-45430000D02*
X151196000Y-39430000D01*
X150496000Y-39430000D02*
X150496000Y-45430000D01*
X151256000Y-39430000D02*
X150496000Y-39430000D01*
X151256000Y-45430000D02*
X151256000Y-39430000D01*
X152206000Y-45430000D02*
X152206000Y-48090000D01*
X139386000Y-45430000D02*
X152206000Y-45430000D01*
X139386000Y-48090000D02*
X139386000Y-45430000D01*
X152206000Y-48090000D02*
X139386000Y-48090000D01*
D11*
X152598380Y-46081666D02*
X153312666Y-46081666D01*
X153455523Y-46034047D01*
X153550761Y-45938809D01*
X153598380Y-45795952D01*
X153598380Y-45700714D01*
X152693619Y-46510238D02*
X152646000Y-46557857D01*
X152598380Y-46653095D01*
X152598380Y-46891190D01*
X152646000Y-46986428D01*
X152693619Y-47034047D01*
X152788857Y-47081666D01*
X152884095Y-47081666D01*
X153026952Y-47034047D01*
X153598380Y-46462619D01*
X153598380Y-47081666D01*
M02*
