G04 #@! TF.GenerationSoftware,KiCad,Pcbnew,5.1.5-1.fc31*
G04 #@! TF.CreationDate,2020-03-23T21:16:22-07:00*
G04 #@! TF.ProjectId,AdapterBoard,41646170-7465-4724-926f-6172642e6b69,rev?*
G04 #@! TF.SameCoordinates,Original*
G04 #@! TF.FileFunction,Soldermask,Bot*
G04 #@! TF.FilePolarity,Negative*
%FSLAX46Y46*%
G04 Gerber Fmt 4.6, Leading zero omitted, Abs format (unit mm)*
G04 Created by KiCad (PCBNEW 5.1.5-1.fc31) date 2020-03-23 21:16:22*
%MOMM*%
%LPD*%
G04 APERTURE LIST*
%ADD10C,0.100000*%
G04 APERTURE END LIST*
D10*
G36*
X157613512Y-66413927D02*
G01*
X157762812Y-66443624D01*
X157926784Y-66511544D01*
X158074354Y-66610147D01*
X158199853Y-66735646D01*
X158298456Y-66883216D01*
X158366376Y-67047188D01*
X158401000Y-67221259D01*
X158401000Y-67398741D01*
X158366376Y-67572812D01*
X158298456Y-67736784D01*
X158199853Y-67884354D01*
X158074354Y-68009853D01*
X157926784Y-68108456D01*
X157762812Y-68176376D01*
X157613512Y-68206073D01*
X157588742Y-68211000D01*
X157411258Y-68211000D01*
X157386488Y-68206073D01*
X157237188Y-68176376D01*
X157073216Y-68108456D01*
X156925646Y-68009853D01*
X156800147Y-67884354D01*
X156701544Y-67736784D01*
X156633624Y-67572812D01*
X156599000Y-67398741D01*
X156599000Y-67221259D01*
X156633624Y-67047188D01*
X156701544Y-66883216D01*
X156800147Y-66735646D01*
X156925646Y-66610147D01*
X157073216Y-66511544D01*
X157237188Y-66443624D01*
X157386488Y-66413927D01*
X157411258Y-66409000D01*
X157588742Y-66409000D01*
X157613512Y-66413927D01*
G37*
G36*
X135113512Y-66413927D02*
G01*
X135262812Y-66443624D01*
X135426784Y-66511544D01*
X135574354Y-66610147D01*
X135699853Y-66735646D01*
X135798456Y-66883216D01*
X135866376Y-67047188D01*
X135901000Y-67221259D01*
X135901000Y-67398741D01*
X135866376Y-67572812D01*
X135798456Y-67736784D01*
X135699853Y-67884354D01*
X135574354Y-68009853D01*
X135426784Y-68108456D01*
X135262812Y-68176376D01*
X135113512Y-68206073D01*
X135088742Y-68211000D01*
X134911258Y-68211000D01*
X134886488Y-68206073D01*
X134737188Y-68176376D01*
X134573216Y-68108456D01*
X134425646Y-68009853D01*
X134300147Y-67884354D01*
X134201544Y-67736784D01*
X134133624Y-67572812D01*
X134099000Y-67398741D01*
X134099000Y-67221259D01*
X134133624Y-67047188D01*
X134201544Y-66883216D01*
X134300147Y-66735646D01*
X134425646Y-66610147D01*
X134573216Y-66511544D01*
X134737188Y-66443624D01*
X134886488Y-66413927D01*
X134911258Y-66409000D01*
X135088742Y-66409000D01*
X135113512Y-66413927D01*
G37*
G36*
X135113512Y-63873927D02*
G01*
X135262812Y-63903624D01*
X135426784Y-63971544D01*
X135574354Y-64070147D01*
X135699853Y-64195646D01*
X135798456Y-64343216D01*
X135866376Y-64507188D01*
X135901000Y-64681259D01*
X135901000Y-64858741D01*
X135866376Y-65032812D01*
X135798456Y-65196784D01*
X135699853Y-65344354D01*
X135574354Y-65469853D01*
X135426784Y-65568456D01*
X135262812Y-65636376D01*
X135113512Y-65666073D01*
X135088742Y-65671000D01*
X134911258Y-65671000D01*
X134886488Y-65666073D01*
X134737188Y-65636376D01*
X134573216Y-65568456D01*
X134425646Y-65469853D01*
X134300147Y-65344354D01*
X134201544Y-65196784D01*
X134133624Y-65032812D01*
X134099000Y-64858741D01*
X134099000Y-64681259D01*
X134133624Y-64507188D01*
X134201544Y-64343216D01*
X134300147Y-64195646D01*
X134425646Y-64070147D01*
X134573216Y-63971544D01*
X134737188Y-63903624D01*
X134886488Y-63873927D01*
X134911258Y-63869000D01*
X135088742Y-63869000D01*
X135113512Y-63873927D01*
G37*
G36*
X157613512Y-63873927D02*
G01*
X157762812Y-63903624D01*
X157926784Y-63971544D01*
X158074354Y-64070147D01*
X158199853Y-64195646D01*
X158298456Y-64343216D01*
X158366376Y-64507188D01*
X158401000Y-64681259D01*
X158401000Y-64858741D01*
X158366376Y-65032812D01*
X158298456Y-65196784D01*
X158199853Y-65344354D01*
X158074354Y-65469853D01*
X157926784Y-65568456D01*
X157762812Y-65636376D01*
X157613512Y-65666073D01*
X157588742Y-65671000D01*
X157411258Y-65671000D01*
X157386488Y-65666073D01*
X157237188Y-65636376D01*
X157073216Y-65568456D01*
X156925646Y-65469853D01*
X156800147Y-65344354D01*
X156701544Y-65196784D01*
X156633624Y-65032812D01*
X156599000Y-64858741D01*
X156599000Y-64681259D01*
X156633624Y-64507188D01*
X156701544Y-64343216D01*
X156800147Y-64195646D01*
X156925646Y-64070147D01*
X157073216Y-63971544D01*
X157237188Y-63903624D01*
X157386488Y-63873927D01*
X157411258Y-63869000D01*
X157588742Y-63869000D01*
X157613512Y-63873927D01*
G37*
G36*
X150151000Y-63631000D02*
G01*
X146899000Y-63631000D01*
X146899000Y-62529000D01*
X150151000Y-62529000D01*
X150151000Y-63631000D01*
G37*
G36*
X145101000Y-63631000D02*
G01*
X141849000Y-63631000D01*
X141849000Y-62529000D01*
X145101000Y-62529000D01*
X145101000Y-63631000D01*
G37*
G36*
X135113512Y-61333927D02*
G01*
X135262812Y-61363624D01*
X135426784Y-61431544D01*
X135574354Y-61530147D01*
X135699853Y-61655646D01*
X135798456Y-61803216D01*
X135866376Y-61967188D01*
X135901000Y-62141259D01*
X135901000Y-62318741D01*
X135866376Y-62492812D01*
X135798456Y-62656784D01*
X135699853Y-62804354D01*
X135574354Y-62929853D01*
X135426784Y-63028456D01*
X135262812Y-63096376D01*
X135113512Y-63126073D01*
X135088742Y-63131000D01*
X134911258Y-63131000D01*
X134886488Y-63126073D01*
X134737188Y-63096376D01*
X134573216Y-63028456D01*
X134425646Y-62929853D01*
X134300147Y-62804354D01*
X134201544Y-62656784D01*
X134133624Y-62492812D01*
X134099000Y-62318741D01*
X134099000Y-62141259D01*
X134133624Y-61967188D01*
X134201544Y-61803216D01*
X134300147Y-61655646D01*
X134425646Y-61530147D01*
X134573216Y-61431544D01*
X134737188Y-61363624D01*
X134886488Y-61333927D01*
X134911258Y-61329000D01*
X135088742Y-61329000D01*
X135113512Y-61333927D01*
G37*
G36*
X157613512Y-61333927D02*
G01*
X157762812Y-61363624D01*
X157926784Y-61431544D01*
X158074354Y-61530147D01*
X158199853Y-61655646D01*
X158298456Y-61803216D01*
X158366376Y-61967188D01*
X158401000Y-62141259D01*
X158401000Y-62318741D01*
X158366376Y-62492812D01*
X158298456Y-62656784D01*
X158199853Y-62804354D01*
X158074354Y-62929853D01*
X157926784Y-63028456D01*
X157762812Y-63096376D01*
X157613512Y-63126073D01*
X157588742Y-63131000D01*
X157411258Y-63131000D01*
X157386488Y-63126073D01*
X157237188Y-63096376D01*
X157073216Y-63028456D01*
X156925646Y-62929853D01*
X156800147Y-62804354D01*
X156701544Y-62656784D01*
X156633624Y-62492812D01*
X156599000Y-62318741D01*
X156599000Y-62141259D01*
X156633624Y-61967188D01*
X156701544Y-61803216D01*
X156800147Y-61655646D01*
X156925646Y-61530147D01*
X157073216Y-61431544D01*
X157237188Y-61363624D01*
X157386488Y-61333927D01*
X157411258Y-61329000D01*
X157588742Y-61329000D01*
X157613512Y-61333927D01*
G37*
G36*
X150151000Y-61091000D02*
G01*
X146899000Y-61091000D01*
X146899000Y-59989000D01*
X150151000Y-59989000D01*
X150151000Y-61091000D01*
G37*
G36*
X145101000Y-61091000D02*
G01*
X141849000Y-61091000D01*
X141849000Y-59989000D01*
X145101000Y-59989000D01*
X145101000Y-61091000D01*
G37*
G36*
X135113512Y-58793927D02*
G01*
X135262812Y-58823624D01*
X135426784Y-58891544D01*
X135574354Y-58990147D01*
X135699853Y-59115646D01*
X135798456Y-59263216D01*
X135866376Y-59427188D01*
X135901000Y-59601259D01*
X135901000Y-59778741D01*
X135866376Y-59952812D01*
X135798456Y-60116784D01*
X135699853Y-60264354D01*
X135574354Y-60389853D01*
X135426784Y-60488456D01*
X135262812Y-60556376D01*
X135113512Y-60586073D01*
X135088742Y-60591000D01*
X134911258Y-60591000D01*
X134886488Y-60586073D01*
X134737188Y-60556376D01*
X134573216Y-60488456D01*
X134425646Y-60389853D01*
X134300147Y-60264354D01*
X134201544Y-60116784D01*
X134133624Y-59952812D01*
X134099000Y-59778741D01*
X134099000Y-59601259D01*
X134133624Y-59427188D01*
X134201544Y-59263216D01*
X134300147Y-59115646D01*
X134425646Y-58990147D01*
X134573216Y-58891544D01*
X134737188Y-58823624D01*
X134886488Y-58793927D01*
X134911258Y-58789000D01*
X135088742Y-58789000D01*
X135113512Y-58793927D01*
G37*
G36*
X157613512Y-58793927D02*
G01*
X157762812Y-58823624D01*
X157926784Y-58891544D01*
X158074354Y-58990147D01*
X158199853Y-59115646D01*
X158298456Y-59263216D01*
X158366376Y-59427188D01*
X158401000Y-59601259D01*
X158401000Y-59778741D01*
X158366376Y-59952812D01*
X158298456Y-60116784D01*
X158199853Y-60264354D01*
X158074354Y-60389853D01*
X157926784Y-60488456D01*
X157762812Y-60556376D01*
X157613512Y-60586073D01*
X157588742Y-60591000D01*
X157411258Y-60591000D01*
X157386488Y-60586073D01*
X157237188Y-60556376D01*
X157073216Y-60488456D01*
X156925646Y-60389853D01*
X156800147Y-60264354D01*
X156701544Y-60116784D01*
X156633624Y-59952812D01*
X156599000Y-59778741D01*
X156599000Y-59601259D01*
X156633624Y-59427188D01*
X156701544Y-59263216D01*
X156800147Y-59115646D01*
X156925646Y-58990147D01*
X157073216Y-58891544D01*
X157237188Y-58823624D01*
X157386488Y-58793927D01*
X157411258Y-58789000D01*
X157588742Y-58789000D01*
X157613512Y-58793927D01*
G37*
G36*
X145101000Y-58551000D02*
G01*
X141849000Y-58551000D01*
X141849000Y-57449000D01*
X145101000Y-57449000D01*
X145101000Y-58551000D01*
G37*
G36*
X150151000Y-58551000D02*
G01*
X146899000Y-58551000D01*
X146899000Y-57449000D01*
X150151000Y-57449000D01*
X150151000Y-58551000D01*
G37*
G36*
X135113512Y-56253927D02*
G01*
X135262812Y-56283624D01*
X135426784Y-56351544D01*
X135574354Y-56450147D01*
X135699853Y-56575646D01*
X135798456Y-56723216D01*
X135866376Y-56887188D01*
X135901000Y-57061259D01*
X135901000Y-57238741D01*
X135866376Y-57412812D01*
X135798456Y-57576784D01*
X135699853Y-57724354D01*
X135574354Y-57849853D01*
X135426784Y-57948456D01*
X135262812Y-58016376D01*
X135113512Y-58046073D01*
X135088742Y-58051000D01*
X134911258Y-58051000D01*
X134886488Y-58046073D01*
X134737188Y-58016376D01*
X134573216Y-57948456D01*
X134425646Y-57849853D01*
X134300147Y-57724354D01*
X134201544Y-57576784D01*
X134133624Y-57412812D01*
X134099000Y-57238741D01*
X134099000Y-57061259D01*
X134133624Y-56887188D01*
X134201544Y-56723216D01*
X134300147Y-56575646D01*
X134425646Y-56450147D01*
X134573216Y-56351544D01*
X134737188Y-56283624D01*
X134886488Y-56253927D01*
X134911258Y-56249000D01*
X135088742Y-56249000D01*
X135113512Y-56253927D01*
G37*
G36*
X157613512Y-56253927D02*
G01*
X157762812Y-56283624D01*
X157926784Y-56351544D01*
X158074354Y-56450147D01*
X158199853Y-56575646D01*
X158298456Y-56723216D01*
X158366376Y-56887188D01*
X158401000Y-57061259D01*
X158401000Y-57238741D01*
X158366376Y-57412812D01*
X158298456Y-57576784D01*
X158199853Y-57724354D01*
X158074354Y-57849853D01*
X157926784Y-57948456D01*
X157762812Y-58016376D01*
X157613512Y-58046073D01*
X157588742Y-58051000D01*
X157411258Y-58051000D01*
X157386488Y-58046073D01*
X157237188Y-58016376D01*
X157073216Y-57948456D01*
X156925646Y-57849853D01*
X156800147Y-57724354D01*
X156701544Y-57576784D01*
X156633624Y-57412812D01*
X156599000Y-57238741D01*
X156599000Y-57061259D01*
X156633624Y-56887188D01*
X156701544Y-56723216D01*
X156800147Y-56575646D01*
X156925646Y-56450147D01*
X157073216Y-56351544D01*
X157237188Y-56283624D01*
X157386488Y-56253927D01*
X157411258Y-56249000D01*
X157588742Y-56249000D01*
X157613512Y-56253927D01*
G37*
G36*
X145101000Y-56011000D02*
G01*
X141849000Y-56011000D01*
X141849000Y-54909000D01*
X145101000Y-54909000D01*
X145101000Y-56011000D01*
G37*
G36*
X150151000Y-56011000D02*
G01*
X146899000Y-56011000D01*
X146899000Y-54909000D01*
X150151000Y-54909000D01*
X150151000Y-56011000D01*
G37*
G36*
X135113512Y-53713927D02*
G01*
X135262812Y-53743624D01*
X135426784Y-53811544D01*
X135574354Y-53910147D01*
X135699853Y-54035646D01*
X135798456Y-54183216D01*
X135866376Y-54347188D01*
X135901000Y-54521259D01*
X135901000Y-54698741D01*
X135866376Y-54872812D01*
X135798456Y-55036784D01*
X135699853Y-55184354D01*
X135574354Y-55309853D01*
X135426784Y-55408456D01*
X135262812Y-55476376D01*
X135113512Y-55506073D01*
X135088742Y-55511000D01*
X134911258Y-55511000D01*
X134886488Y-55506073D01*
X134737188Y-55476376D01*
X134573216Y-55408456D01*
X134425646Y-55309853D01*
X134300147Y-55184354D01*
X134201544Y-55036784D01*
X134133624Y-54872812D01*
X134099000Y-54698741D01*
X134099000Y-54521259D01*
X134133624Y-54347188D01*
X134201544Y-54183216D01*
X134300147Y-54035646D01*
X134425646Y-53910147D01*
X134573216Y-53811544D01*
X134737188Y-53743624D01*
X134886488Y-53713927D01*
X134911258Y-53709000D01*
X135088742Y-53709000D01*
X135113512Y-53713927D01*
G37*
G36*
X157613512Y-53713927D02*
G01*
X157762812Y-53743624D01*
X157926784Y-53811544D01*
X158074354Y-53910147D01*
X158199853Y-54035646D01*
X158298456Y-54183216D01*
X158366376Y-54347188D01*
X158401000Y-54521259D01*
X158401000Y-54698741D01*
X158366376Y-54872812D01*
X158298456Y-55036784D01*
X158199853Y-55184354D01*
X158074354Y-55309853D01*
X157926784Y-55408456D01*
X157762812Y-55476376D01*
X157613512Y-55506073D01*
X157588742Y-55511000D01*
X157411258Y-55511000D01*
X157386488Y-55506073D01*
X157237188Y-55476376D01*
X157073216Y-55408456D01*
X156925646Y-55309853D01*
X156800147Y-55184354D01*
X156701544Y-55036784D01*
X156633624Y-54872812D01*
X156599000Y-54698741D01*
X156599000Y-54521259D01*
X156633624Y-54347188D01*
X156701544Y-54183216D01*
X156800147Y-54035646D01*
X156925646Y-53910147D01*
X157073216Y-53811544D01*
X157237188Y-53743624D01*
X157386488Y-53713927D01*
X157411258Y-53709000D01*
X157588742Y-53709000D01*
X157613512Y-53713927D01*
G37*
G36*
X145101000Y-53471000D02*
G01*
X141849000Y-53471000D01*
X141849000Y-52369000D01*
X145101000Y-52369000D01*
X145101000Y-53471000D01*
G37*
G36*
X150151000Y-53471000D02*
G01*
X146899000Y-53471000D01*
X146899000Y-52369000D01*
X150151000Y-52369000D01*
X150151000Y-53471000D01*
G37*
G36*
X157613512Y-51173927D02*
G01*
X157762812Y-51203624D01*
X157926784Y-51271544D01*
X158074354Y-51370147D01*
X158199853Y-51495646D01*
X158298456Y-51643216D01*
X158366376Y-51807188D01*
X158401000Y-51981259D01*
X158401000Y-52158741D01*
X158366376Y-52332812D01*
X158298456Y-52496784D01*
X158199853Y-52644354D01*
X158074354Y-52769853D01*
X157926784Y-52868456D01*
X157762812Y-52936376D01*
X157613512Y-52966073D01*
X157588742Y-52971000D01*
X157411258Y-52971000D01*
X157386488Y-52966073D01*
X157237188Y-52936376D01*
X157073216Y-52868456D01*
X156925646Y-52769853D01*
X156800147Y-52644354D01*
X156701544Y-52496784D01*
X156633624Y-52332812D01*
X156599000Y-52158741D01*
X156599000Y-51981259D01*
X156633624Y-51807188D01*
X156701544Y-51643216D01*
X156800147Y-51495646D01*
X156925646Y-51370147D01*
X157073216Y-51271544D01*
X157237188Y-51203624D01*
X157386488Y-51173927D01*
X157411258Y-51169000D01*
X157588742Y-51169000D01*
X157613512Y-51173927D01*
G37*
G36*
X135113512Y-51173927D02*
G01*
X135262812Y-51203624D01*
X135426784Y-51271544D01*
X135574354Y-51370147D01*
X135699853Y-51495646D01*
X135798456Y-51643216D01*
X135866376Y-51807188D01*
X135901000Y-51981259D01*
X135901000Y-52158741D01*
X135866376Y-52332812D01*
X135798456Y-52496784D01*
X135699853Y-52644354D01*
X135574354Y-52769853D01*
X135426784Y-52868456D01*
X135262812Y-52936376D01*
X135113512Y-52966073D01*
X135088742Y-52971000D01*
X134911258Y-52971000D01*
X134886488Y-52966073D01*
X134737188Y-52936376D01*
X134573216Y-52868456D01*
X134425646Y-52769853D01*
X134300147Y-52644354D01*
X134201544Y-52496784D01*
X134133624Y-52332812D01*
X134099000Y-52158741D01*
X134099000Y-51981259D01*
X134133624Y-51807188D01*
X134201544Y-51643216D01*
X134300147Y-51495646D01*
X134425646Y-51370147D01*
X134573216Y-51271544D01*
X134737188Y-51203624D01*
X134886488Y-51173927D01*
X134911258Y-51169000D01*
X135088742Y-51169000D01*
X135113512Y-51173927D01*
G37*
G36*
X158401000Y-50431000D02*
G01*
X156599000Y-50431000D01*
X156599000Y-48629000D01*
X158401000Y-48629000D01*
X158401000Y-50431000D01*
G37*
G36*
X135901000Y-50431000D02*
G01*
X134099000Y-50431000D01*
X134099000Y-48629000D01*
X135901000Y-48629000D01*
X135901000Y-50431000D01*
G37*
M02*
