G04 #@! TF.GenerationSoftware,KiCad,Pcbnew,5.1.5-1.fc31*
G04 #@! TF.CreationDate,2020-04-10T18:01:58-07:00*
G04 #@! TF.ProjectId,AdapterBoard,41646170-7465-4724-926f-6172642e6b69,rev?*
G04 #@! TF.SameCoordinates,Original*
G04 #@! TF.FileFunction,Copper,L2,Bot*
G04 #@! TF.FilePolarity,Positive*
%FSLAX46Y46*%
G04 Gerber Fmt 4.6, Leading zero omitted, Abs format (unit mm)*
G04 Created by KiCad (PCBNEW 5.1.5-1.fc31) date 2020-04-10 18:01:58*
%MOMM*%
%LPD*%
G04 APERTURE LIST*
%ADD10O,1.700000X1.700000*%
%ADD11R,1.700000X1.700000*%
%ADD12C,0.800000*%
%ADD13C,0.400000*%
%ADD14C,0.254000*%
G04 APERTURE END LIST*
D10*
X157500000Y-78620000D03*
X157500000Y-76080000D03*
X157500000Y-73540000D03*
X157500000Y-71000000D03*
X157500000Y-68460000D03*
X157500000Y-65920000D03*
X157500000Y-63380000D03*
D11*
X157500000Y-60840000D03*
D10*
X140716000Y-49530000D03*
X140716000Y-52070000D03*
X143256000Y-49530000D03*
X143256000Y-52070000D03*
X145796000Y-49530000D03*
X145796000Y-52070000D03*
X148336000Y-49530000D03*
X148336000Y-52070000D03*
X150876000Y-49530000D03*
D11*
X150876000Y-52070000D03*
D10*
X135000000Y-78620000D03*
X135000000Y-76080000D03*
X135000000Y-73540000D03*
X135000000Y-71000000D03*
X135000000Y-68460000D03*
X135000000Y-65920000D03*
X135000000Y-63380000D03*
D11*
X135000000Y-60840000D03*
D12*
X153416000Y-54864000D03*
X149860000Y-58420000D03*
D13*
X150876000Y-49530000D02*
X153162000Y-49530000D01*
X153162000Y-49530000D02*
X153416000Y-49784000D01*
X153416000Y-49784000D02*
X153416000Y-54864000D01*
X149860000Y-58420000D02*
X148336000Y-58420000D01*
X156250000Y-60840000D02*
X148336000Y-52926000D01*
X148336000Y-52926000D02*
X148336000Y-52070000D01*
X157500000Y-60840000D02*
X156250000Y-60840000D01*
X147085999Y-50780001D02*
X147486001Y-50379999D01*
X147085999Y-52965999D02*
X147085999Y-50780001D01*
X147486001Y-50379999D02*
X148336000Y-49530000D01*
X157500000Y-63380000D02*
X147085999Y-52965999D01*
D14*
G36*
X139562525Y-48583368D02*
G01*
X139400010Y-48826589D01*
X139288068Y-49096842D01*
X139231000Y-49383740D01*
X139231000Y-49676260D01*
X139288068Y-49963158D01*
X139400010Y-50233411D01*
X139562525Y-50476632D01*
X139769368Y-50683475D01*
X139943760Y-50800000D01*
X139769368Y-50916525D01*
X139562525Y-51123368D01*
X139400010Y-51366589D01*
X139288068Y-51636842D01*
X139231000Y-51923740D01*
X139231000Y-52216260D01*
X139288068Y-52503158D01*
X139400010Y-52773411D01*
X139562525Y-53016632D01*
X139769368Y-53223475D01*
X140012589Y-53385990D01*
X140282842Y-53497932D01*
X140569740Y-53555000D01*
X140862260Y-53555000D01*
X141149158Y-53497932D01*
X141419411Y-53385990D01*
X141662632Y-53223475D01*
X141869475Y-53016632D01*
X141986000Y-52842240D01*
X142102525Y-53016632D01*
X142309368Y-53223475D01*
X142552589Y-53385990D01*
X142822842Y-53497932D01*
X143109740Y-53555000D01*
X143402260Y-53555000D01*
X143689158Y-53497932D01*
X143959411Y-53385990D01*
X144202632Y-53223475D01*
X144409475Y-53016632D01*
X144526000Y-52842240D01*
X144642525Y-53016632D01*
X144849368Y-53223475D01*
X145092589Y-53385990D01*
X145362842Y-53497932D01*
X145649740Y-53555000D01*
X145942260Y-53555000D01*
X146229158Y-53497932D01*
X146388294Y-53432016D01*
X146388363Y-53432144D01*
X146492708Y-53559290D01*
X146524578Y-53585445D01*
X156041193Y-63102061D01*
X156015000Y-63233740D01*
X156015000Y-63526260D01*
X156072068Y-63813158D01*
X156184010Y-64083411D01*
X156346525Y-64326632D01*
X156553368Y-64533475D01*
X156727760Y-64650000D01*
X156553368Y-64766525D01*
X156346525Y-64973368D01*
X156184010Y-65216589D01*
X156072068Y-65486842D01*
X156015000Y-65773740D01*
X156015000Y-66066260D01*
X156072068Y-66353158D01*
X156184010Y-66623411D01*
X156346525Y-66866632D01*
X156553368Y-67073475D01*
X156727760Y-67190000D01*
X156553368Y-67306525D01*
X156346525Y-67513368D01*
X156184010Y-67756589D01*
X156072068Y-68026842D01*
X156015000Y-68313740D01*
X156015000Y-68606260D01*
X156072068Y-68893158D01*
X156184010Y-69163411D01*
X156346525Y-69406632D01*
X156553368Y-69613475D01*
X156727760Y-69730000D01*
X156553368Y-69846525D01*
X156346525Y-70053368D01*
X156184010Y-70296589D01*
X156072068Y-70566842D01*
X156015000Y-70853740D01*
X156015000Y-71146260D01*
X156072068Y-71433158D01*
X156184010Y-71703411D01*
X156346525Y-71946632D01*
X156553368Y-72153475D01*
X156727760Y-72270000D01*
X156553368Y-72386525D01*
X156346525Y-72593368D01*
X156184010Y-72836589D01*
X156072068Y-73106842D01*
X156015000Y-73393740D01*
X156015000Y-73686260D01*
X156072068Y-73973158D01*
X156184010Y-74243411D01*
X156346525Y-74486632D01*
X156553368Y-74693475D01*
X156727760Y-74810000D01*
X156553368Y-74926525D01*
X156346525Y-75133368D01*
X156184010Y-75376589D01*
X156072068Y-75646842D01*
X156015000Y-75933740D01*
X156015000Y-76226260D01*
X156072068Y-76513158D01*
X156184010Y-76783411D01*
X156346525Y-77026632D01*
X156553368Y-77233475D01*
X156727760Y-77350000D01*
X156553368Y-77466525D01*
X156346525Y-77673368D01*
X156184010Y-77916589D01*
X156072068Y-78186842D01*
X156015000Y-78473740D01*
X156015000Y-78766260D01*
X156072068Y-79053158D01*
X156184010Y-79323411D01*
X156346525Y-79566632D01*
X156553368Y-79773475D01*
X156652930Y-79840000D01*
X135839684Y-79840000D01*
X135881355Y-79815178D01*
X136097588Y-79620269D01*
X136271641Y-79386920D01*
X136396825Y-79124099D01*
X136441476Y-78976890D01*
X136320155Y-78747000D01*
X135127000Y-78747000D01*
X135127000Y-78767000D01*
X134873000Y-78767000D01*
X134873000Y-78747000D01*
X134853000Y-78747000D01*
X134853000Y-78493000D01*
X134873000Y-78493000D01*
X134873000Y-78473000D01*
X135127000Y-78473000D01*
X135127000Y-78493000D01*
X136320155Y-78493000D01*
X136441476Y-78263110D01*
X136396825Y-78115901D01*
X136271641Y-77853080D01*
X136097588Y-77619731D01*
X135881355Y-77424822D01*
X135764466Y-77355195D01*
X135946632Y-77233475D01*
X136153475Y-77026632D01*
X136315990Y-76783411D01*
X136427932Y-76513158D01*
X136485000Y-76226260D01*
X136485000Y-75933740D01*
X136427932Y-75646842D01*
X136315990Y-75376589D01*
X136153475Y-75133368D01*
X135946632Y-74926525D01*
X135772240Y-74810000D01*
X135946632Y-74693475D01*
X136153475Y-74486632D01*
X136315990Y-74243411D01*
X136427932Y-73973158D01*
X136485000Y-73686260D01*
X136485000Y-73393740D01*
X136427932Y-73106842D01*
X136315990Y-72836589D01*
X136153475Y-72593368D01*
X135946632Y-72386525D01*
X135772240Y-72270000D01*
X135946632Y-72153475D01*
X136153475Y-71946632D01*
X136315990Y-71703411D01*
X136427932Y-71433158D01*
X136485000Y-71146260D01*
X136485000Y-70853740D01*
X136427932Y-70566842D01*
X136315990Y-70296589D01*
X136153475Y-70053368D01*
X135946632Y-69846525D01*
X135772240Y-69730000D01*
X135946632Y-69613475D01*
X136153475Y-69406632D01*
X136315990Y-69163411D01*
X136427932Y-68893158D01*
X136485000Y-68606260D01*
X136485000Y-68313740D01*
X136427932Y-68026842D01*
X136315990Y-67756589D01*
X136153475Y-67513368D01*
X135946632Y-67306525D01*
X135772240Y-67190000D01*
X135946632Y-67073475D01*
X136153475Y-66866632D01*
X136315990Y-66623411D01*
X136427932Y-66353158D01*
X136485000Y-66066260D01*
X136485000Y-65773740D01*
X136427932Y-65486842D01*
X136315990Y-65216589D01*
X136153475Y-64973368D01*
X135946632Y-64766525D01*
X135772240Y-64650000D01*
X135946632Y-64533475D01*
X136153475Y-64326632D01*
X136315990Y-64083411D01*
X136427932Y-63813158D01*
X136485000Y-63526260D01*
X136485000Y-63233740D01*
X136427932Y-62946842D01*
X136315990Y-62676589D01*
X136153475Y-62433368D01*
X136021620Y-62301513D01*
X136094180Y-62279502D01*
X136204494Y-62220537D01*
X136301185Y-62141185D01*
X136380537Y-62044494D01*
X136439502Y-61934180D01*
X136475812Y-61814482D01*
X136488072Y-61690000D01*
X136488072Y-59990000D01*
X136475812Y-59865518D01*
X136439502Y-59745820D01*
X136380537Y-59635506D01*
X136301185Y-59538815D01*
X136204494Y-59459463D01*
X136094180Y-59400498D01*
X135974482Y-59364188D01*
X135850000Y-59351928D01*
X134150000Y-59351928D01*
X134025518Y-59364188D01*
X133905820Y-59400498D01*
X133795506Y-59459463D01*
X133731000Y-59512402D01*
X133731000Y-48387000D01*
X139758893Y-48387000D01*
X139562525Y-48583368D01*
G37*
X139562525Y-48583368D02*
X139400010Y-48826589D01*
X139288068Y-49096842D01*
X139231000Y-49383740D01*
X139231000Y-49676260D01*
X139288068Y-49963158D01*
X139400010Y-50233411D01*
X139562525Y-50476632D01*
X139769368Y-50683475D01*
X139943760Y-50800000D01*
X139769368Y-50916525D01*
X139562525Y-51123368D01*
X139400010Y-51366589D01*
X139288068Y-51636842D01*
X139231000Y-51923740D01*
X139231000Y-52216260D01*
X139288068Y-52503158D01*
X139400010Y-52773411D01*
X139562525Y-53016632D01*
X139769368Y-53223475D01*
X140012589Y-53385990D01*
X140282842Y-53497932D01*
X140569740Y-53555000D01*
X140862260Y-53555000D01*
X141149158Y-53497932D01*
X141419411Y-53385990D01*
X141662632Y-53223475D01*
X141869475Y-53016632D01*
X141986000Y-52842240D01*
X142102525Y-53016632D01*
X142309368Y-53223475D01*
X142552589Y-53385990D01*
X142822842Y-53497932D01*
X143109740Y-53555000D01*
X143402260Y-53555000D01*
X143689158Y-53497932D01*
X143959411Y-53385990D01*
X144202632Y-53223475D01*
X144409475Y-53016632D01*
X144526000Y-52842240D01*
X144642525Y-53016632D01*
X144849368Y-53223475D01*
X145092589Y-53385990D01*
X145362842Y-53497932D01*
X145649740Y-53555000D01*
X145942260Y-53555000D01*
X146229158Y-53497932D01*
X146388294Y-53432016D01*
X146388363Y-53432144D01*
X146492708Y-53559290D01*
X146524578Y-53585445D01*
X156041193Y-63102061D01*
X156015000Y-63233740D01*
X156015000Y-63526260D01*
X156072068Y-63813158D01*
X156184010Y-64083411D01*
X156346525Y-64326632D01*
X156553368Y-64533475D01*
X156727760Y-64650000D01*
X156553368Y-64766525D01*
X156346525Y-64973368D01*
X156184010Y-65216589D01*
X156072068Y-65486842D01*
X156015000Y-65773740D01*
X156015000Y-66066260D01*
X156072068Y-66353158D01*
X156184010Y-66623411D01*
X156346525Y-66866632D01*
X156553368Y-67073475D01*
X156727760Y-67190000D01*
X156553368Y-67306525D01*
X156346525Y-67513368D01*
X156184010Y-67756589D01*
X156072068Y-68026842D01*
X156015000Y-68313740D01*
X156015000Y-68606260D01*
X156072068Y-68893158D01*
X156184010Y-69163411D01*
X156346525Y-69406632D01*
X156553368Y-69613475D01*
X156727760Y-69730000D01*
X156553368Y-69846525D01*
X156346525Y-70053368D01*
X156184010Y-70296589D01*
X156072068Y-70566842D01*
X156015000Y-70853740D01*
X156015000Y-71146260D01*
X156072068Y-71433158D01*
X156184010Y-71703411D01*
X156346525Y-71946632D01*
X156553368Y-72153475D01*
X156727760Y-72270000D01*
X156553368Y-72386525D01*
X156346525Y-72593368D01*
X156184010Y-72836589D01*
X156072068Y-73106842D01*
X156015000Y-73393740D01*
X156015000Y-73686260D01*
X156072068Y-73973158D01*
X156184010Y-74243411D01*
X156346525Y-74486632D01*
X156553368Y-74693475D01*
X156727760Y-74810000D01*
X156553368Y-74926525D01*
X156346525Y-75133368D01*
X156184010Y-75376589D01*
X156072068Y-75646842D01*
X156015000Y-75933740D01*
X156015000Y-76226260D01*
X156072068Y-76513158D01*
X156184010Y-76783411D01*
X156346525Y-77026632D01*
X156553368Y-77233475D01*
X156727760Y-77350000D01*
X156553368Y-77466525D01*
X156346525Y-77673368D01*
X156184010Y-77916589D01*
X156072068Y-78186842D01*
X156015000Y-78473740D01*
X156015000Y-78766260D01*
X156072068Y-79053158D01*
X156184010Y-79323411D01*
X156346525Y-79566632D01*
X156553368Y-79773475D01*
X156652930Y-79840000D01*
X135839684Y-79840000D01*
X135881355Y-79815178D01*
X136097588Y-79620269D01*
X136271641Y-79386920D01*
X136396825Y-79124099D01*
X136441476Y-78976890D01*
X136320155Y-78747000D01*
X135127000Y-78747000D01*
X135127000Y-78767000D01*
X134873000Y-78767000D01*
X134873000Y-78747000D01*
X134853000Y-78747000D01*
X134853000Y-78493000D01*
X134873000Y-78493000D01*
X134873000Y-78473000D01*
X135127000Y-78473000D01*
X135127000Y-78493000D01*
X136320155Y-78493000D01*
X136441476Y-78263110D01*
X136396825Y-78115901D01*
X136271641Y-77853080D01*
X136097588Y-77619731D01*
X135881355Y-77424822D01*
X135764466Y-77355195D01*
X135946632Y-77233475D01*
X136153475Y-77026632D01*
X136315990Y-76783411D01*
X136427932Y-76513158D01*
X136485000Y-76226260D01*
X136485000Y-75933740D01*
X136427932Y-75646842D01*
X136315990Y-75376589D01*
X136153475Y-75133368D01*
X135946632Y-74926525D01*
X135772240Y-74810000D01*
X135946632Y-74693475D01*
X136153475Y-74486632D01*
X136315990Y-74243411D01*
X136427932Y-73973158D01*
X136485000Y-73686260D01*
X136485000Y-73393740D01*
X136427932Y-73106842D01*
X136315990Y-72836589D01*
X136153475Y-72593368D01*
X135946632Y-72386525D01*
X135772240Y-72270000D01*
X135946632Y-72153475D01*
X136153475Y-71946632D01*
X136315990Y-71703411D01*
X136427932Y-71433158D01*
X136485000Y-71146260D01*
X136485000Y-70853740D01*
X136427932Y-70566842D01*
X136315990Y-70296589D01*
X136153475Y-70053368D01*
X135946632Y-69846525D01*
X135772240Y-69730000D01*
X135946632Y-69613475D01*
X136153475Y-69406632D01*
X136315990Y-69163411D01*
X136427932Y-68893158D01*
X136485000Y-68606260D01*
X136485000Y-68313740D01*
X136427932Y-68026842D01*
X136315990Y-67756589D01*
X136153475Y-67513368D01*
X135946632Y-67306525D01*
X135772240Y-67190000D01*
X135946632Y-67073475D01*
X136153475Y-66866632D01*
X136315990Y-66623411D01*
X136427932Y-66353158D01*
X136485000Y-66066260D01*
X136485000Y-65773740D01*
X136427932Y-65486842D01*
X136315990Y-65216589D01*
X136153475Y-64973368D01*
X135946632Y-64766525D01*
X135772240Y-64650000D01*
X135946632Y-64533475D01*
X136153475Y-64326632D01*
X136315990Y-64083411D01*
X136427932Y-63813158D01*
X136485000Y-63526260D01*
X136485000Y-63233740D01*
X136427932Y-62946842D01*
X136315990Y-62676589D01*
X136153475Y-62433368D01*
X136021620Y-62301513D01*
X136094180Y-62279502D01*
X136204494Y-62220537D01*
X136301185Y-62141185D01*
X136380537Y-62044494D01*
X136439502Y-61934180D01*
X136475812Y-61814482D01*
X136488072Y-61690000D01*
X136488072Y-59990000D01*
X136475812Y-59865518D01*
X136439502Y-59745820D01*
X136380537Y-59635506D01*
X136301185Y-59538815D01*
X136204494Y-59459463D01*
X136094180Y-59400498D01*
X135974482Y-59364188D01*
X135850000Y-59351928D01*
X134150000Y-59351928D01*
X134025518Y-59364188D01*
X133905820Y-59400498D01*
X133795506Y-59459463D01*
X133731000Y-59512402D01*
X133731000Y-48387000D01*
X139758893Y-48387000D01*
X139562525Y-48583368D01*
G36*
X158840001Y-59586112D02*
G01*
X158801185Y-59538815D01*
X158704494Y-59459463D01*
X158594180Y-59400498D01*
X158474482Y-59364188D01*
X158350000Y-59351928D01*
X156650000Y-59351928D01*
X156525518Y-59364188D01*
X156405820Y-59400498D01*
X156295506Y-59459463D01*
X156198815Y-59538815D01*
X156167653Y-59576786D01*
X150148939Y-53558072D01*
X151726000Y-53558072D01*
X151850482Y-53545812D01*
X151970180Y-53509502D01*
X152080494Y-53450537D01*
X152177185Y-53371185D01*
X152256537Y-53274494D01*
X152315502Y-53164180D01*
X152351812Y-53044482D01*
X152364072Y-52920000D01*
X152364072Y-51220000D01*
X152351812Y-51095518D01*
X152315502Y-50975820D01*
X152256537Y-50865506D01*
X152177185Y-50768815D01*
X152080494Y-50689463D01*
X151970180Y-50630498D01*
X151894374Y-50607502D01*
X152071178Y-50411355D01*
X152220157Y-50161252D01*
X152317481Y-49886891D01*
X152196814Y-49657000D01*
X151003000Y-49657000D01*
X151003000Y-49677000D01*
X150749000Y-49677000D01*
X150749000Y-49657000D01*
X150729000Y-49657000D01*
X150729000Y-49403000D01*
X150749000Y-49403000D01*
X150749000Y-49383000D01*
X151003000Y-49383000D01*
X151003000Y-49403000D01*
X152196814Y-49403000D01*
X152317481Y-49173109D01*
X152220157Y-48898748D01*
X152071178Y-48648645D01*
X151876269Y-48432412D01*
X151815386Y-48387000D01*
X158840000Y-48387000D01*
X158840001Y-59586112D01*
G37*
X158840001Y-59586112D02*
X158801185Y-59538815D01*
X158704494Y-59459463D01*
X158594180Y-59400498D01*
X158474482Y-59364188D01*
X158350000Y-59351928D01*
X156650000Y-59351928D01*
X156525518Y-59364188D01*
X156405820Y-59400498D01*
X156295506Y-59459463D01*
X156198815Y-59538815D01*
X156167653Y-59576786D01*
X150148939Y-53558072D01*
X151726000Y-53558072D01*
X151850482Y-53545812D01*
X151970180Y-53509502D01*
X152080494Y-53450537D01*
X152177185Y-53371185D01*
X152256537Y-53274494D01*
X152315502Y-53164180D01*
X152351812Y-53044482D01*
X152364072Y-52920000D01*
X152364072Y-51220000D01*
X152351812Y-51095518D01*
X152315502Y-50975820D01*
X152256537Y-50865506D01*
X152177185Y-50768815D01*
X152080494Y-50689463D01*
X151970180Y-50630498D01*
X151894374Y-50607502D01*
X152071178Y-50411355D01*
X152220157Y-50161252D01*
X152317481Y-49886891D01*
X152196814Y-49657000D01*
X151003000Y-49657000D01*
X151003000Y-49677000D01*
X150749000Y-49677000D01*
X150749000Y-49657000D01*
X150729000Y-49657000D01*
X150729000Y-49403000D01*
X150749000Y-49403000D01*
X150749000Y-49383000D01*
X151003000Y-49383000D01*
X151003000Y-49403000D01*
X152196814Y-49403000D01*
X152317481Y-49173109D01*
X152220157Y-48898748D01*
X152071178Y-48648645D01*
X151876269Y-48432412D01*
X151815386Y-48387000D01*
X158840000Y-48387000D01*
X158840001Y-59586112D01*
M02*
