G04 #@! TF.GenerationSoftware,KiCad,Pcbnew,5.1.5-1.fc31*
G04 #@! TF.CreationDate,2020-04-10T18:01:58-07:00*
G04 #@! TF.ProjectId,AdapterBoard,41646170-7465-4724-926f-6172642e6b69,rev?*
G04 #@! TF.SameCoordinates,Original*
G04 #@! TF.FileFunction,Soldermask,Top*
G04 #@! TF.FilePolarity,Negative*
%FSLAX46Y46*%
G04 Gerber Fmt 4.6, Leading zero omitted, Abs format (unit mm)*
G04 Created by KiCad (PCBNEW 5.1.5-1.fc31) date 2020-04-10 18:01:58*
%MOMM*%
%LPD*%
G04 APERTURE LIST*
%ADD10C,0.100000*%
G04 APERTURE END LIST*
D10*
G36*
X157613512Y-77723927D02*
G01*
X157762812Y-77753624D01*
X157926784Y-77821544D01*
X158074354Y-77920147D01*
X158199853Y-78045646D01*
X158298456Y-78193216D01*
X158366376Y-78357188D01*
X158401000Y-78531259D01*
X158401000Y-78708741D01*
X158366376Y-78882812D01*
X158298456Y-79046784D01*
X158199853Y-79194354D01*
X158074354Y-79319853D01*
X157926784Y-79418456D01*
X157762812Y-79486376D01*
X157613512Y-79516073D01*
X157588742Y-79521000D01*
X157411258Y-79521000D01*
X157386488Y-79516073D01*
X157237188Y-79486376D01*
X157073216Y-79418456D01*
X156925646Y-79319853D01*
X156800147Y-79194354D01*
X156701544Y-79046784D01*
X156633624Y-78882812D01*
X156599000Y-78708741D01*
X156599000Y-78531259D01*
X156633624Y-78357188D01*
X156701544Y-78193216D01*
X156800147Y-78045646D01*
X156925646Y-77920147D01*
X157073216Y-77821544D01*
X157237188Y-77753624D01*
X157386488Y-77723927D01*
X157411258Y-77719000D01*
X157588742Y-77719000D01*
X157613512Y-77723927D01*
G37*
G36*
X135113512Y-77723927D02*
G01*
X135262812Y-77753624D01*
X135426784Y-77821544D01*
X135574354Y-77920147D01*
X135699853Y-78045646D01*
X135798456Y-78193216D01*
X135866376Y-78357188D01*
X135901000Y-78531259D01*
X135901000Y-78708741D01*
X135866376Y-78882812D01*
X135798456Y-79046784D01*
X135699853Y-79194354D01*
X135574354Y-79319853D01*
X135426784Y-79418456D01*
X135262812Y-79486376D01*
X135113512Y-79516073D01*
X135088742Y-79521000D01*
X134911258Y-79521000D01*
X134886488Y-79516073D01*
X134737188Y-79486376D01*
X134573216Y-79418456D01*
X134425646Y-79319853D01*
X134300147Y-79194354D01*
X134201544Y-79046784D01*
X134133624Y-78882812D01*
X134099000Y-78708741D01*
X134099000Y-78531259D01*
X134133624Y-78357188D01*
X134201544Y-78193216D01*
X134300147Y-78045646D01*
X134425646Y-77920147D01*
X134573216Y-77821544D01*
X134737188Y-77753624D01*
X134886488Y-77723927D01*
X134911258Y-77719000D01*
X135088742Y-77719000D01*
X135113512Y-77723927D01*
G37*
G36*
X135113512Y-75183927D02*
G01*
X135262812Y-75213624D01*
X135426784Y-75281544D01*
X135574354Y-75380147D01*
X135699853Y-75505646D01*
X135798456Y-75653216D01*
X135866376Y-75817188D01*
X135901000Y-75991259D01*
X135901000Y-76168741D01*
X135866376Y-76342812D01*
X135798456Y-76506784D01*
X135699853Y-76654354D01*
X135574354Y-76779853D01*
X135426784Y-76878456D01*
X135262812Y-76946376D01*
X135113512Y-76976073D01*
X135088742Y-76981000D01*
X134911258Y-76981000D01*
X134886488Y-76976073D01*
X134737188Y-76946376D01*
X134573216Y-76878456D01*
X134425646Y-76779853D01*
X134300147Y-76654354D01*
X134201544Y-76506784D01*
X134133624Y-76342812D01*
X134099000Y-76168741D01*
X134099000Y-75991259D01*
X134133624Y-75817188D01*
X134201544Y-75653216D01*
X134300147Y-75505646D01*
X134425646Y-75380147D01*
X134573216Y-75281544D01*
X134737188Y-75213624D01*
X134886488Y-75183927D01*
X134911258Y-75179000D01*
X135088742Y-75179000D01*
X135113512Y-75183927D01*
G37*
G36*
X157613512Y-75183927D02*
G01*
X157762812Y-75213624D01*
X157926784Y-75281544D01*
X158074354Y-75380147D01*
X158199853Y-75505646D01*
X158298456Y-75653216D01*
X158366376Y-75817188D01*
X158401000Y-75991259D01*
X158401000Y-76168741D01*
X158366376Y-76342812D01*
X158298456Y-76506784D01*
X158199853Y-76654354D01*
X158074354Y-76779853D01*
X157926784Y-76878456D01*
X157762812Y-76946376D01*
X157613512Y-76976073D01*
X157588742Y-76981000D01*
X157411258Y-76981000D01*
X157386488Y-76976073D01*
X157237188Y-76946376D01*
X157073216Y-76878456D01*
X156925646Y-76779853D01*
X156800147Y-76654354D01*
X156701544Y-76506784D01*
X156633624Y-76342812D01*
X156599000Y-76168741D01*
X156599000Y-75991259D01*
X156633624Y-75817188D01*
X156701544Y-75653216D01*
X156800147Y-75505646D01*
X156925646Y-75380147D01*
X157073216Y-75281544D01*
X157237188Y-75213624D01*
X157386488Y-75183927D01*
X157411258Y-75179000D01*
X157588742Y-75179000D01*
X157613512Y-75183927D01*
G37*
G36*
X157613512Y-72643927D02*
G01*
X157762812Y-72673624D01*
X157926784Y-72741544D01*
X158074354Y-72840147D01*
X158199853Y-72965646D01*
X158298456Y-73113216D01*
X158366376Y-73277188D01*
X158401000Y-73451259D01*
X158401000Y-73628741D01*
X158366376Y-73802812D01*
X158298456Y-73966784D01*
X158199853Y-74114354D01*
X158074354Y-74239853D01*
X157926784Y-74338456D01*
X157762812Y-74406376D01*
X157613512Y-74436073D01*
X157588742Y-74441000D01*
X157411258Y-74441000D01*
X157386488Y-74436073D01*
X157237188Y-74406376D01*
X157073216Y-74338456D01*
X156925646Y-74239853D01*
X156800147Y-74114354D01*
X156701544Y-73966784D01*
X156633624Y-73802812D01*
X156599000Y-73628741D01*
X156599000Y-73451259D01*
X156633624Y-73277188D01*
X156701544Y-73113216D01*
X156800147Y-72965646D01*
X156925646Y-72840147D01*
X157073216Y-72741544D01*
X157237188Y-72673624D01*
X157386488Y-72643927D01*
X157411258Y-72639000D01*
X157588742Y-72639000D01*
X157613512Y-72643927D01*
G37*
G36*
X135113512Y-72643927D02*
G01*
X135262812Y-72673624D01*
X135426784Y-72741544D01*
X135574354Y-72840147D01*
X135699853Y-72965646D01*
X135798456Y-73113216D01*
X135866376Y-73277188D01*
X135901000Y-73451259D01*
X135901000Y-73628741D01*
X135866376Y-73802812D01*
X135798456Y-73966784D01*
X135699853Y-74114354D01*
X135574354Y-74239853D01*
X135426784Y-74338456D01*
X135262812Y-74406376D01*
X135113512Y-74436073D01*
X135088742Y-74441000D01*
X134911258Y-74441000D01*
X134886488Y-74436073D01*
X134737188Y-74406376D01*
X134573216Y-74338456D01*
X134425646Y-74239853D01*
X134300147Y-74114354D01*
X134201544Y-73966784D01*
X134133624Y-73802812D01*
X134099000Y-73628741D01*
X134099000Y-73451259D01*
X134133624Y-73277188D01*
X134201544Y-73113216D01*
X134300147Y-72965646D01*
X134425646Y-72840147D01*
X134573216Y-72741544D01*
X134737188Y-72673624D01*
X134886488Y-72643927D01*
X134911258Y-72639000D01*
X135088742Y-72639000D01*
X135113512Y-72643927D01*
G37*
G36*
X135113512Y-70103927D02*
G01*
X135262812Y-70133624D01*
X135426784Y-70201544D01*
X135574354Y-70300147D01*
X135699853Y-70425646D01*
X135798456Y-70573216D01*
X135866376Y-70737188D01*
X135901000Y-70911259D01*
X135901000Y-71088741D01*
X135866376Y-71262812D01*
X135798456Y-71426784D01*
X135699853Y-71574354D01*
X135574354Y-71699853D01*
X135426784Y-71798456D01*
X135262812Y-71866376D01*
X135113512Y-71896073D01*
X135088742Y-71901000D01*
X134911258Y-71901000D01*
X134886488Y-71896073D01*
X134737188Y-71866376D01*
X134573216Y-71798456D01*
X134425646Y-71699853D01*
X134300147Y-71574354D01*
X134201544Y-71426784D01*
X134133624Y-71262812D01*
X134099000Y-71088741D01*
X134099000Y-70911259D01*
X134133624Y-70737188D01*
X134201544Y-70573216D01*
X134300147Y-70425646D01*
X134425646Y-70300147D01*
X134573216Y-70201544D01*
X134737188Y-70133624D01*
X134886488Y-70103927D01*
X134911258Y-70099000D01*
X135088742Y-70099000D01*
X135113512Y-70103927D01*
G37*
G36*
X157613512Y-70103927D02*
G01*
X157762812Y-70133624D01*
X157926784Y-70201544D01*
X158074354Y-70300147D01*
X158199853Y-70425646D01*
X158298456Y-70573216D01*
X158366376Y-70737188D01*
X158401000Y-70911259D01*
X158401000Y-71088741D01*
X158366376Y-71262812D01*
X158298456Y-71426784D01*
X158199853Y-71574354D01*
X158074354Y-71699853D01*
X157926784Y-71798456D01*
X157762812Y-71866376D01*
X157613512Y-71896073D01*
X157588742Y-71901000D01*
X157411258Y-71901000D01*
X157386488Y-71896073D01*
X157237188Y-71866376D01*
X157073216Y-71798456D01*
X156925646Y-71699853D01*
X156800147Y-71574354D01*
X156701544Y-71426784D01*
X156633624Y-71262812D01*
X156599000Y-71088741D01*
X156599000Y-70911259D01*
X156633624Y-70737188D01*
X156701544Y-70573216D01*
X156800147Y-70425646D01*
X156925646Y-70300147D01*
X157073216Y-70201544D01*
X157237188Y-70133624D01*
X157386488Y-70103927D01*
X157411258Y-70099000D01*
X157588742Y-70099000D01*
X157613512Y-70103927D01*
G37*
G36*
X135113512Y-67563927D02*
G01*
X135262812Y-67593624D01*
X135426784Y-67661544D01*
X135574354Y-67760147D01*
X135699853Y-67885646D01*
X135798456Y-68033216D01*
X135866376Y-68197188D01*
X135901000Y-68371259D01*
X135901000Y-68548741D01*
X135866376Y-68722812D01*
X135798456Y-68886784D01*
X135699853Y-69034354D01*
X135574354Y-69159853D01*
X135426784Y-69258456D01*
X135262812Y-69326376D01*
X135113512Y-69356073D01*
X135088742Y-69361000D01*
X134911258Y-69361000D01*
X134886488Y-69356073D01*
X134737188Y-69326376D01*
X134573216Y-69258456D01*
X134425646Y-69159853D01*
X134300147Y-69034354D01*
X134201544Y-68886784D01*
X134133624Y-68722812D01*
X134099000Y-68548741D01*
X134099000Y-68371259D01*
X134133624Y-68197188D01*
X134201544Y-68033216D01*
X134300147Y-67885646D01*
X134425646Y-67760147D01*
X134573216Y-67661544D01*
X134737188Y-67593624D01*
X134886488Y-67563927D01*
X134911258Y-67559000D01*
X135088742Y-67559000D01*
X135113512Y-67563927D01*
G37*
G36*
X157613512Y-67563927D02*
G01*
X157762812Y-67593624D01*
X157926784Y-67661544D01*
X158074354Y-67760147D01*
X158199853Y-67885646D01*
X158298456Y-68033216D01*
X158366376Y-68197188D01*
X158401000Y-68371259D01*
X158401000Y-68548741D01*
X158366376Y-68722812D01*
X158298456Y-68886784D01*
X158199853Y-69034354D01*
X158074354Y-69159853D01*
X157926784Y-69258456D01*
X157762812Y-69326376D01*
X157613512Y-69356073D01*
X157588742Y-69361000D01*
X157411258Y-69361000D01*
X157386488Y-69356073D01*
X157237188Y-69326376D01*
X157073216Y-69258456D01*
X156925646Y-69159853D01*
X156800147Y-69034354D01*
X156701544Y-68886784D01*
X156633624Y-68722812D01*
X156599000Y-68548741D01*
X156599000Y-68371259D01*
X156633624Y-68197188D01*
X156701544Y-68033216D01*
X156800147Y-67885646D01*
X156925646Y-67760147D01*
X157073216Y-67661544D01*
X157237188Y-67593624D01*
X157386488Y-67563927D01*
X157411258Y-67559000D01*
X157588742Y-67559000D01*
X157613512Y-67563927D01*
G37*
G36*
X135113512Y-65023927D02*
G01*
X135262812Y-65053624D01*
X135426784Y-65121544D01*
X135574354Y-65220147D01*
X135699853Y-65345646D01*
X135798456Y-65493216D01*
X135866376Y-65657188D01*
X135901000Y-65831259D01*
X135901000Y-66008741D01*
X135866376Y-66182812D01*
X135798456Y-66346784D01*
X135699853Y-66494354D01*
X135574354Y-66619853D01*
X135426784Y-66718456D01*
X135262812Y-66786376D01*
X135113512Y-66816073D01*
X135088742Y-66821000D01*
X134911258Y-66821000D01*
X134886488Y-66816073D01*
X134737188Y-66786376D01*
X134573216Y-66718456D01*
X134425646Y-66619853D01*
X134300147Y-66494354D01*
X134201544Y-66346784D01*
X134133624Y-66182812D01*
X134099000Y-66008741D01*
X134099000Y-65831259D01*
X134133624Y-65657188D01*
X134201544Y-65493216D01*
X134300147Y-65345646D01*
X134425646Y-65220147D01*
X134573216Y-65121544D01*
X134737188Y-65053624D01*
X134886488Y-65023927D01*
X134911258Y-65019000D01*
X135088742Y-65019000D01*
X135113512Y-65023927D01*
G37*
G36*
X157613512Y-65023927D02*
G01*
X157762812Y-65053624D01*
X157926784Y-65121544D01*
X158074354Y-65220147D01*
X158199853Y-65345646D01*
X158298456Y-65493216D01*
X158366376Y-65657188D01*
X158401000Y-65831259D01*
X158401000Y-66008741D01*
X158366376Y-66182812D01*
X158298456Y-66346784D01*
X158199853Y-66494354D01*
X158074354Y-66619853D01*
X157926784Y-66718456D01*
X157762812Y-66786376D01*
X157613512Y-66816073D01*
X157588742Y-66821000D01*
X157411258Y-66821000D01*
X157386488Y-66816073D01*
X157237188Y-66786376D01*
X157073216Y-66718456D01*
X156925646Y-66619853D01*
X156800147Y-66494354D01*
X156701544Y-66346784D01*
X156633624Y-66182812D01*
X156599000Y-66008741D01*
X156599000Y-65831259D01*
X156633624Y-65657188D01*
X156701544Y-65493216D01*
X156800147Y-65345646D01*
X156925646Y-65220147D01*
X157073216Y-65121544D01*
X157237188Y-65053624D01*
X157386488Y-65023927D01*
X157411258Y-65019000D01*
X157588742Y-65019000D01*
X157613512Y-65023927D01*
G37*
G36*
X135113512Y-62483927D02*
G01*
X135262812Y-62513624D01*
X135426784Y-62581544D01*
X135574354Y-62680147D01*
X135699853Y-62805646D01*
X135798456Y-62953216D01*
X135866376Y-63117188D01*
X135901000Y-63291259D01*
X135901000Y-63468741D01*
X135866376Y-63642812D01*
X135798456Y-63806784D01*
X135699853Y-63954354D01*
X135574354Y-64079853D01*
X135426784Y-64178456D01*
X135262812Y-64246376D01*
X135113512Y-64276073D01*
X135088742Y-64281000D01*
X134911258Y-64281000D01*
X134886488Y-64276073D01*
X134737188Y-64246376D01*
X134573216Y-64178456D01*
X134425646Y-64079853D01*
X134300147Y-63954354D01*
X134201544Y-63806784D01*
X134133624Y-63642812D01*
X134099000Y-63468741D01*
X134099000Y-63291259D01*
X134133624Y-63117188D01*
X134201544Y-62953216D01*
X134300147Y-62805646D01*
X134425646Y-62680147D01*
X134573216Y-62581544D01*
X134737188Y-62513624D01*
X134886488Y-62483927D01*
X134911258Y-62479000D01*
X135088742Y-62479000D01*
X135113512Y-62483927D01*
G37*
G36*
X157613512Y-62483927D02*
G01*
X157762812Y-62513624D01*
X157926784Y-62581544D01*
X158074354Y-62680147D01*
X158199853Y-62805646D01*
X158298456Y-62953216D01*
X158366376Y-63117188D01*
X158401000Y-63291259D01*
X158401000Y-63468741D01*
X158366376Y-63642812D01*
X158298456Y-63806784D01*
X158199853Y-63954354D01*
X158074354Y-64079853D01*
X157926784Y-64178456D01*
X157762812Y-64246376D01*
X157613512Y-64276073D01*
X157588742Y-64281000D01*
X157411258Y-64281000D01*
X157386488Y-64276073D01*
X157237188Y-64246376D01*
X157073216Y-64178456D01*
X156925646Y-64079853D01*
X156800147Y-63954354D01*
X156701544Y-63806784D01*
X156633624Y-63642812D01*
X156599000Y-63468741D01*
X156599000Y-63291259D01*
X156633624Y-63117188D01*
X156701544Y-62953216D01*
X156800147Y-62805646D01*
X156925646Y-62680147D01*
X157073216Y-62581544D01*
X157237188Y-62513624D01*
X157386488Y-62483927D01*
X157411258Y-62479000D01*
X157588742Y-62479000D01*
X157613512Y-62483927D01*
G37*
G36*
X135901000Y-61741000D02*
G01*
X134099000Y-61741000D01*
X134099000Y-59939000D01*
X135901000Y-59939000D01*
X135901000Y-61741000D01*
G37*
G36*
X158401000Y-61741000D02*
G01*
X156599000Y-61741000D01*
X156599000Y-59939000D01*
X158401000Y-59939000D01*
X158401000Y-61741000D01*
G37*
G36*
X145909512Y-51173927D02*
G01*
X146058812Y-51203624D01*
X146222784Y-51271544D01*
X146370354Y-51370147D01*
X146495853Y-51495646D01*
X146594456Y-51643216D01*
X146662376Y-51807188D01*
X146697000Y-51981259D01*
X146697000Y-52158741D01*
X146662376Y-52332812D01*
X146594456Y-52496784D01*
X146495853Y-52644354D01*
X146370354Y-52769853D01*
X146222784Y-52868456D01*
X146058812Y-52936376D01*
X145909512Y-52966073D01*
X145884742Y-52971000D01*
X145707258Y-52971000D01*
X145682488Y-52966073D01*
X145533188Y-52936376D01*
X145369216Y-52868456D01*
X145221646Y-52769853D01*
X145096147Y-52644354D01*
X144997544Y-52496784D01*
X144929624Y-52332812D01*
X144895000Y-52158741D01*
X144895000Y-51981259D01*
X144929624Y-51807188D01*
X144997544Y-51643216D01*
X145096147Y-51495646D01*
X145221646Y-51370147D01*
X145369216Y-51271544D01*
X145533188Y-51203624D01*
X145682488Y-51173927D01*
X145707258Y-51169000D01*
X145884742Y-51169000D01*
X145909512Y-51173927D01*
G37*
G36*
X151777000Y-52971000D02*
G01*
X149975000Y-52971000D01*
X149975000Y-51169000D01*
X151777000Y-51169000D01*
X151777000Y-52971000D01*
G37*
G36*
X148449512Y-51173927D02*
G01*
X148598812Y-51203624D01*
X148762784Y-51271544D01*
X148910354Y-51370147D01*
X149035853Y-51495646D01*
X149134456Y-51643216D01*
X149202376Y-51807188D01*
X149237000Y-51981259D01*
X149237000Y-52158741D01*
X149202376Y-52332812D01*
X149134456Y-52496784D01*
X149035853Y-52644354D01*
X148910354Y-52769853D01*
X148762784Y-52868456D01*
X148598812Y-52936376D01*
X148449512Y-52966073D01*
X148424742Y-52971000D01*
X148247258Y-52971000D01*
X148222488Y-52966073D01*
X148073188Y-52936376D01*
X147909216Y-52868456D01*
X147761646Y-52769853D01*
X147636147Y-52644354D01*
X147537544Y-52496784D01*
X147469624Y-52332812D01*
X147435000Y-52158741D01*
X147435000Y-51981259D01*
X147469624Y-51807188D01*
X147537544Y-51643216D01*
X147636147Y-51495646D01*
X147761646Y-51370147D01*
X147909216Y-51271544D01*
X148073188Y-51203624D01*
X148222488Y-51173927D01*
X148247258Y-51169000D01*
X148424742Y-51169000D01*
X148449512Y-51173927D01*
G37*
G36*
X143369512Y-51173927D02*
G01*
X143518812Y-51203624D01*
X143682784Y-51271544D01*
X143830354Y-51370147D01*
X143955853Y-51495646D01*
X144054456Y-51643216D01*
X144122376Y-51807188D01*
X144157000Y-51981259D01*
X144157000Y-52158741D01*
X144122376Y-52332812D01*
X144054456Y-52496784D01*
X143955853Y-52644354D01*
X143830354Y-52769853D01*
X143682784Y-52868456D01*
X143518812Y-52936376D01*
X143369512Y-52966073D01*
X143344742Y-52971000D01*
X143167258Y-52971000D01*
X143142488Y-52966073D01*
X142993188Y-52936376D01*
X142829216Y-52868456D01*
X142681646Y-52769853D01*
X142556147Y-52644354D01*
X142457544Y-52496784D01*
X142389624Y-52332812D01*
X142355000Y-52158741D01*
X142355000Y-51981259D01*
X142389624Y-51807188D01*
X142457544Y-51643216D01*
X142556147Y-51495646D01*
X142681646Y-51370147D01*
X142829216Y-51271544D01*
X142993188Y-51203624D01*
X143142488Y-51173927D01*
X143167258Y-51169000D01*
X143344742Y-51169000D01*
X143369512Y-51173927D01*
G37*
G36*
X140829512Y-51173927D02*
G01*
X140978812Y-51203624D01*
X141142784Y-51271544D01*
X141290354Y-51370147D01*
X141415853Y-51495646D01*
X141514456Y-51643216D01*
X141582376Y-51807188D01*
X141617000Y-51981259D01*
X141617000Y-52158741D01*
X141582376Y-52332812D01*
X141514456Y-52496784D01*
X141415853Y-52644354D01*
X141290354Y-52769853D01*
X141142784Y-52868456D01*
X140978812Y-52936376D01*
X140829512Y-52966073D01*
X140804742Y-52971000D01*
X140627258Y-52971000D01*
X140602488Y-52966073D01*
X140453188Y-52936376D01*
X140289216Y-52868456D01*
X140141646Y-52769853D01*
X140016147Y-52644354D01*
X139917544Y-52496784D01*
X139849624Y-52332812D01*
X139815000Y-52158741D01*
X139815000Y-51981259D01*
X139849624Y-51807188D01*
X139917544Y-51643216D01*
X140016147Y-51495646D01*
X140141646Y-51370147D01*
X140289216Y-51271544D01*
X140453188Y-51203624D01*
X140602488Y-51173927D01*
X140627258Y-51169000D01*
X140804742Y-51169000D01*
X140829512Y-51173927D01*
G37*
G36*
X140829512Y-48633927D02*
G01*
X140978812Y-48663624D01*
X141142784Y-48731544D01*
X141290354Y-48830147D01*
X141415853Y-48955646D01*
X141514456Y-49103216D01*
X141582376Y-49267188D01*
X141617000Y-49441259D01*
X141617000Y-49618741D01*
X141582376Y-49792812D01*
X141514456Y-49956784D01*
X141415853Y-50104354D01*
X141290354Y-50229853D01*
X141142784Y-50328456D01*
X140978812Y-50396376D01*
X140829512Y-50426073D01*
X140804742Y-50431000D01*
X140627258Y-50431000D01*
X140602488Y-50426073D01*
X140453188Y-50396376D01*
X140289216Y-50328456D01*
X140141646Y-50229853D01*
X140016147Y-50104354D01*
X139917544Y-49956784D01*
X139849624Y-49792812D01*
X139815000Y-49618741D01*
X139815000Y-49441259D01*
X139849624Y-49267188D01*
X139917544Y-49103216D01*
X140016147Y-48955646D01*
X140141646Y-48830147D01*
X140289216Y-48731544D01*
X140453188Y-48663624D01*
X140602488Y-48633927D01*
X140627258Y-48629000D01*
X140804742Y-48629000D01*
X140829512Y-48633927D01*
G37*
G36*
X148449512Y-48633927D02*
G01*
X148598812Y-48663624D01*
X148762784Y-48731544D01*
X148910354Y-48830147D01*
X149035853Y-48955646D01*
X149134456Y-49103216D01*
X149202376Y-49267188D01*
X149237000Y-49441259D01*
X149237000Y-49618741D01*
X149202376Y-49792812D01*
X149134456Y-49956784D01*
X149035853Y-50104354D01*
X148910354Y-50229853D01*
X148762784Y-50328456D01*
X148598812Y-50396376D01*
X148449512Y-50426073D01*
X148424742Y-50431000D01*
X148247258Y-50431000D01*
X148222488Y-50426073D01*
X148073188Y-50396376D01*
X147909216Y-50328456D01*
X147761646Y-50229853D01*
X147636147Y-50104354D01*
X147537544Y-49956784D01*
X147469624Y-49792812D01*
X147435000Y-49618741D01*
X147435000Y-49441259D01*
X147469624Y-49267188D01*
X147537544Y-49103216D01*
X147636147Y-48955646D01*
X147761646Y-48830147D01*
X147909216Y-48731544D01*
X148073188Y-48663624D01*
X148222488Y-48633927D01*
X148247258Y-48629000D01*
X148424742Y-48629000D01*
X148449512Y-48633927D01*
G37*
G36*
X145909512Y-48633927D02*
G01*
X146058812Y-48663624D01*
X146222784Y-48731544D01*
X146370354Y-48830147D01*
X146495853Y-48955646D01*
X146594456Y-49103216D01*
X146662376Y-49267188D01*
X146697000Y-49441259D01*
X146697000Y-49618741D01*
X146662376Y-49792812D01*
X146594456Y-49956784D01*
X146495853Y-50104354D01*
X146370354Y-50229853D01*
X146222784Y-50328456D01*
X146058812Y-50396376D01*
X145909512Y-50426073D01*
X145884742Y-50431000D01*
X145707258Y-50431000D01*
X145682488Y-50426073D01*
X145533188Y-50396376D01*
X145369216Y-50328456D01*
X145221646Y-50229853D01*
X145096147Y-50104354D01*
X144997544Y-49956784D01*
X144929624Y-49792812D01*
X144895000Y-49618741D01*
X144895000Y-49441259D01*
X144929624Y-49267188D01*
X144997544Y-49103216D01*
X145096147Y-48955646D01*
X145221646Y-48830147D01*
X145369216Y-48731544D01*
X145533188Y-48663624D01*
X145682488Y-48633927D01*
X145707258Y-48629000D01*
X145884742Y-48629000D01*
X145909512Y-48633927D01*
G37*
G36*
X150989512Y-48633927D02*
G01*
X151138812Y-48663624D01*
X151302784Y-48731544D01*
X151450354Y-48830147D01*
X151575853Y-48955646D01*
X151674456Y-49103216D01*
X151742376Y-49267188D01*
X151777000Y-49441259D01*
X151777000Y-49618741D01*
X151742376Y-49792812D01*
X151674456Y-49956784D01*
X151575853Y-50104354D01*
X151450354Y-50229853D01*
X151302784Y-50328456D01*
X151138812Y-50396376D01*
X150989512Y-50426073D01*
X150964742Y-50431000D01*
X150787258Y-50431000D01*
X150762488Y-50426073D01*
X150613188Y-50396376D01*
X150449216Y-50328456D01*
X150301646Y-50229853D01*
X150176147Y-50104354D01*
X150077544Y-49956784D01*
X150009624Y-49792812D01*
X149975000Y-49618741D01*
X149975000Y-49441259D01*
X150009624Y-49267188D01*
X150077544Y-49103216D01*
X150176147Y-48955646D01*
X150301646Y-48830147D01*
X150449216Y-48731544D01*
X150613188Y-48663624D01*
X150762488Y-48633927D01*
X150787258Y-48629000D01*
X150964742Y-48629000D01*
X150989512Y-48633927D01*
G37*
G36*
X143369512Y-48633927D02*
G01*
X143518812Y-48663624D01*
X143682784Y-48731544D01*
X143830354Y-48830147D01*
X143955853Y-48955646D01*
X144054456Y-49103216D01*
X144122376Y-49267188D01*
X144157000Y-49441259D01*
X144157000Y-49618741D01*
X144122376Y-49792812D01*
X144054456Y-49956784D01*
X143955853Y-50104354D01*
X143830354Y-50229853D01*
X143682784Y-50328456D01*
X143518812Y-50396376D01*
X143369512Y-50426073D01*
X143344742Y-50431000D01*
X143167258Y-50431000D01*
X143142488Y-50426073D01*
X142993188Y-50396376D01*
X142829216Y-50328456D01*
X142681646Y-50229853D01*
X142556147Y-50104354D01*
X142457544Y-49956784D01*
X142389624Y-49792812D01*
X142355000Y-49618741D01*
X142355000Y-49441259D01*
X142389624Y-49267188D01*
X142457544Y-49103216D01*
X142556147Y-48955646D01*
X142681646Y-48830147D01*
X142829216Y-48731544D01*
X142993188Y-48663624D01*
X143142488Y-48633927D01*
X143167258Y-48629000D01*
X143344742Y-48629000D01*
X143369512Y-48633927D01*
G37*
M02*
