G04 #@! TF.GenerationSoftware,KiCad,Pcbnew,5.1.5-1.fc31*
G04 #@! TF.CreationDate,2020-03-23T21:16:22-07:00*
G04 #@! TF.ProjectId,AdapterBoard,41646170-7465-4724-926f-6172642e6b69,rev?*
G04 #@! TF.SameCoordinates,Original*
G04 #@! TF.FileFunction,Legend,Top*
G04 #@! TF.FilePolarity,Positive*
%FSLAX46Y46*%
G04 Gerber Fmt 4.6, Leading zero omitted, Abs format (unit mm)*
G04 Created by KiCad (PCBNEW 5.1.5-1.fc31) date 2020-03-23 21:16:22*
%MOMM*%
%LPD*%
G04 APERTURE LIST*
%ADD10C,0.120000*%
%ADD11C,0.150000*%
G04 APERTURE END LIST*
D10*
X156170000Y-48200000D02*
X157500000Y-48200000D01*
X156170000Y-49530000D02*
X156170000Y-48200000D01*
X156170000Y-50800000D02*
X158830000Y-50800000D01*
X158830000Y-50800000D02*
X158830000Y-68640000D01*
X156170000Y-50800000D02*
X156170000Y-68640000D01*
X156170000Y-68640000D02*
X158830000Y-68640000D01*
X133670000Y-48200000D02*
X135000000Y-48200000D01*
X133670000Y-49530000D02*
X133670000Y-48200000D01*
X133670000Y-50800000D02*
X136330000Y-50800000D01*
X136330000Y-50800000D02*
X136330000Y-68640000D01*
X133670000Y-50800000D02*
X133670000Y-68640000D01*
X133670000Y-68640000D02*
X136330000Y-68640000D01*
D11*
X154166666Y-47952380D02*
X154166666Y-48666666D01*
X154119047Y-48809523D01*
X154023809Y-48904761D01*
X153880952Y-48952380D01*
X153785714Y-48952380D01*
X154547619Y-47952380D02*
X155166666Y-47952380D01*
X154833333Y-48333333D01*
X154976190Y-48333333D01*
X155071428Y-48380952D01*
X155119047Y-48428571D01*
X155166666Y-48523809D01*
X155166666Y-48761904D01*
X155119047Y-48857142D01*
X155071428Y-48904761D01*
X154976190Y-48952380D01*
X154690476Y-48952380D01*
X154595238Y-48904761D01*
X154547619Y-48857142D01*
X137666666Y-47952380D02*
X137666666Y-48666666D01*
X137619047Y-48809523D01*
X137523809Y-48904761D01*
X137380952Y-48952380D01*
X137285714Y-48952380D01*
X138666666Y-48952380D02*
X138095238Y-48952380D01*
X138380952Y-48952380D02*
X138380952Y-47952380D01*
X138285714Y-48095238D01*
X138190476Y-48190476D01*
X138095238Y-48238095D01*
M02*
